<svg xmlns="http://www.w3.org/2000/svg" width="263.448" height="260.097" viewBox="0 0 263.448 260.097">
  <path id="box4" d="M299.284,30.462a9.289,9.289,0,0,0-4.673-5.582,8.766,8.766,0,0,0-4.02-.99,8.948,8.948,0,0,0-3.04.549C203.467,55.452,138.929,104.094,84.5,177.416a9.6,9.6,0,0,0-1.79,7.157,9.5,9.5,0,0,0,3.682,6.322l121.217,91.321a8.988,8.988,0,0,0,12.532-1.813c31.92-40.562,73.257-71.623,119.945-90.128a9.686,9.686,0,0,0,5.562-11.809Z" transform="translate(-82.607 -23.89)" fill="#01cc9b"/>
</svg>
