<svg xmlns="http://www.w3.org/2000/svg" width="20" height="20" viewBox="0 0 20 20"><defs><style>.a{fill:#fff;}</style></defs><path class="a" d="M4.167,0H.833A.834.834,0,0,0,0,.833V4.167A.834.834,0,0,0,.833,5H4.167A.834.834,0,0,0,5,4.167V.833A.834.834,0,0,0,4.167,0Z"/><path class="a" d="M20.5,0H8.833A.834.834,0,0,0,8,.833V4.167A.834.834,0,0,0,8.833,5H20.5a.834.834,0,0,0,.833-.833V.833A.834.834,0,0,0,20.5,0Z" transform="translate(-1.333)"/><path class="a" d="M4.167,9H.833A.834.834,0,0,0,0,9.833v3.333A.834.834,0,0,0,.833,14H4.167A.834.834,0,0,0,5,13.167V9.833A.834.834,0,0,0,4.167,9Z" transform="translate(0 -1.5)"/><path class="a" d="M20.5,9H8.833A.834.834,0,0,0,8,9.833v3.333A.834.834,0,0,0,8.833,14H20.5a.834.834,0,0,0,.833-.833V9.833A.834.834,0,0,0,20.5,9Z" transform="translate(-1.333 -1.5)"/><path class="a" d="M4.167,18H.833A.834.834,0,0,0,0,18.833v3.333A.834.834,0,0,0,.833,23H4.167A.834.834,0,0,0,5,22.167V18.833A.834.834,0,0,0,4.167,18Z" transform="translate(0 -3)"/><path class="a" d="M20.5,18H8.833A.834.834,0,0,0,8,18.833v3.333A.834.834,0,0,0,8.833,23H20.5a.834.834,0,0,0,.833-.833V18.833A.834.834,0,0,0,20.5,18Z" transform="translate(-1.333 -3)"/></svg>