<svg type="image/svg+xml" data-v-dad64fdc="" width="142" height="81" viewBox="0 0 354.00798 204.007" fill="" xmlns="http://www.w3.org/2000/svg" xmlns:xlink="http://www.w3.org/1999/xlink" class="logo__image">
			  <path data-v-dad64fdc="" fill="#ffb500" d="m 39.067,204.007 36.6,-36.689 h 17.541 l -36.6,36.689 z m 52.411,-0.017 36.582,-36.672 h 17.539 L 109.018,203.99 Z M 225.024,70.113 294.966,0 h 17.542 l -69.941,70.114 z m -52.4,0 39.813,-39.913 h 17.539 l -39.814,39.913 z" class="logo__lines"></path>
			  <path data-v-dad64fdc="" fill="#1d3c34" d="m 233.296,157.493 v -1.984 h 1.442 a 6.066,6.066 0 0 0 1.865,-0.262 3.132,3.132 0 0 0 1.31,-0.792 3.221,3.221 0 0 0 0.757,-1.364 6.943,6.943 0 0 0 0.245,-1.968 v -6.541 h 1.978 v 3.47 a 1.524,1.524 0 0 0 0.245,0.915 1.609,1.609 0 0 0 0.57,0.49 2,2 0 0 0 0.619,0.2 c 0.2,0.016 0.342,0.033 0.415,0.033 h 10.855 a 2.871,2.871 0 0 0 0.448,-0.049 1.542,1.542 0 0 0 0.578,-0.238 1.718,1.718 0 0 0 0.5,-0.588 2.117,2.117 0 0 0 0.211,-1.054 v -3.176 h 1.974 v 3.136 a 1.989,1.989 0 0 0 0.481,1.487 2.151,2.151 0 0 0 1.564,0.474 3.089,3.089 0 0 0 0.439,-0.057 1.525,1.525 0 0 0 0.579,-0.262 1.722,1.722 0 0 0 0.5,-0.588 2.244,2.244 0 0 0 0.2,-1.054 v -3.136 h 1.971 v 3.136 a 2.011,2.011 0 0 0 0.489,1.495 2.221,2.221 0 0 0 1.58,0.481 2.271,2.271 0 0 0 0.448,-0.065 1.58,1.58 0 0 0 0.562,-0.278 1.687,1.687 0 0 0 0.473,-0.6 2.212,2.212 0 0 0 0.2,-1.038 c 0,-0.155 -0.016,-0.351 -0.032,-0.58 -0.032,-0.229 -0.058,-0.482 -0.1,-0.743 -0.042,-0.261 -0.081,-0.539 -0.13,-0.816 -0.049,-0.277 -0.1,-0.531 -0.147,-0.777 -0.047,-0.246 -0.1,-0.457 -0.139,-0.645 a 4.276,4.276 0 0 0 -0.106,-0.433 l 1.873,-0.588 c 0.017,0.041 0.04,0.148 0.082,0.327 0.042,0.179 0.1,0.4 0.146,0.661 0.046,0.261 0.114,0.556 0.18,0.874 0.066,0.318 0.113,0.645 0.162,0.973 0.049,0.328 0.1,0.636 0.13,0.939 a 7.615,7.615 0 0 1 0.057,0.808 4.217,4.217 0 0 1 -0.325,1.732 3.779,3.779 0 0 1 -0.839,1.226 3.5,3.5 0 0 1 -1.181,0.734 4.022,4.022 0 0 1 -1.319,0.262 4.89,4.89 0 0 1 -1.767,-0.3 3.538,3.538 0 0 1 -1.3,-0.865 3.6,3.6 0 0 1 -1.262,0.865 3.9,3.9 0 0 1 -1.433,0.278 4.844,4.844 0 0 1 -1.751,-0.286 3.571,3.571 0 0 1 -1.286,-0.832 3.377,3.377 0 0 1 -1.263,0.865 4.145,4.145 0 0 1 -1.457,0.279 h -10.846 a 4.363,4.363 0 0 1 -1.849,-0.4 7.927,7.927 0 0 1 -0.407,2.623 5.409,5.409 0 0 1 -1.189,1.96 5.166,5.166 0 0 1 -1.93,1.216 7.682,7.682 0 0 1 -2.63,0.426 z m 51.1,-0.017 a 6.085,6.085 0 0 1 -2.939,-0.711 5.62,5.62 0 0 1 -2.134,-2.016 6.254,6.254 0 0 1 -0.805,-1.977 7.681,7.681 0 0 1 -0.171,-2.319 12.465,12.465 0 0 1 0.455,-2.6 18.964,18.964 0 0 1 1.076,-2.81 l 1.775,0.857 a 17.475,17.475 0 0 0 -0.92,2.327 10.272,10.272 0 0 0 -0.424,2.116 6.522,6.522 0 0 0 0.082,1.846 4.452,4.452 0 0 0 0.594,1.519 3.8,3.8 0 0 0 1.426,1.315 4.167,4.167 0 0 0 1.986,0.465 h 2.46 a 6.22,6.22 0 0 0 1.954,-0.253 2.724,2.724 0 0 0 1.181,-0.719 2.375,2.375 0 0 0 0.579,-1.119 6.124,6.124 0 0 0 0.154,-1.445 v -7.375 h 1.971 v 3.258 a 2.067,2.067 0 0 0 0.155,0.76 1.838,1.838 0 0 0 0.383,0.588 1.753,1.753 0 0 0 0.578,0.367 2.061,2.061 0 0 0 0.766,0.131 h 9.617 a 3.581,3.581 0 0 0 1.189,-0.157 1.671,1.671 0 0 0 0.668,-0.374 1.043,1.043 0 0 0 0.285,-0.5 2.141,2.141 0 0 0 0.073,-0.531 v -3.544 h 1.963 v 3.47 a 1.663,1.663 0 0 0 0.121,0.661 1.553,1.553 0 0 0 0.3,0.458 1.459,1.459 0 0 0 0.4,0.285 2.8,2.8 0 0 0 0.432,0.155 1.748,1.748 0 0 0 0.383,0.066 c 0.105,0.01 0.2,0.01 0.244,0.01 h 9.527 a 0.81,0.81 0 0 0 0.652,-0.294 2.745,2.745 0 0 0 0.448,-0.769 8.086,8.086 0 0 0 0.342,-1.077 c 0.105,-0.4 0.228,-0.817 0.358,-1.25 a 11.61,11.61 0 0 1 0.489,-1.249 4.42,4.42 0 0 1 0.716,-1.078 3.252,3.252 0 0 1 2.565,-1.053 3.787,3.787 0 0 1 1.783,0.391 3.674,3.674 0 0 1 1.262,1.054 4.467,4.467 0 0 1 0.75,1.518 6.482,6.482 0 0 1 0.245,1.781 7.9,7.9 0 0 1 -0.171,1.756 4.55,4.55 0 0 1 -0.456,1.225 3.092,3.092 0 0 1 -0.627,0.808 2.986,2.986 0 0 1 -0.716,0.457 2.774,2.774 0 0 1 -0.692,0.213 4.189,4.189 0 0 1 -0.578,0.049 4.9,4.9 0 0 1 -0.986,-0.1 7.246,7.246 0 0 1 -0.961,-0.3 10.982,10.982 0 0 1 -1.026,-0.474 c -0.358,-0.188 -0.758,-0.409 -1.189,-0.645 a 2.761,2.761 0 0 1 -2.207,1.021 h -9.527 a 4.84,4.84 0 0 1 -1.677,-0.279 2.619,2.619 0 0 1 -1.165,-0.816 4.36,4.36 0 0 1 -3.217,1.1 h -9.617 a 4.029,4.029 0 0 1 -1.881,-0.45 v 0.735 a 5.437,5.437 0 0 1 -1.458,4.141 6.174,6.174 0 0 1 -4.38,1.38 z m 40.177,-12.43 a 1.488,1.488 0 0 0 -0.537,0.449 2.57,2.57 0 0 0 -0.366,0.661 c -0.1,0.253 -0.187,0.53 -0.277,0.825 -0.09,0.295 -0.163,0.612 -0.244,0.94 -0.081,0.328 -0.187,0.644 -0.293,0.963 q 0.537,0.281 1,0.514 c 0.3,0.164 0.595,0.3 0.855,0.417 0.26,0.117 0.514,0.2 0.75,0.278 a 2.558,2.558 0 0 0 0.684,0.09 h 0.2 a 0.857,0.857 0 0 0 0.284,-0.09 1.059,1.059 0 0 0 0.3,-0.229 1.381,1.381 0 0 0 0.277,-0.425 3.643,3.643 0 0 0 0.2,-0.711 6.6,6.6 0 0 0 0.081,-1.069 c 0,-0.074 -0.008,-0.2 -0.024,-0.368 a 3.222,3.222 0 0 0 -0.1,-0.555 4,4 0 0 0 -0.212,-0.637 2.4,2.4 0 0 0 -0.382,-0.6 1.8,1.8 0 0 0 -0.587,-0.441 1.853,1.853 0 0 0 -0.839,-0.171 1.722,1.722 0 0 0 -0.766,0.159 z m -27.156,10.691 1.652,-1.675 1.678,1.675 -1.7,1.7 z m 4.006,-0.016 1.652,-1.683 1.669,1.683 -1.694,1.7 z m -107.4,-0.025 1.653,-1.682 1.677,1.682 -1.7,1.7 z m 4.007,-0.024 1.652,-1.674 1.669,1.674 -1.694,1.7 z m -91.064,-6.867 v -6.087 h -1.638 v -1.5 h 1.638 v -3.541 h 1.707 v 3.541 h 3.668 v 1.5 h -3.668 v 5.531 c 0,2.523 0.162,3.239 1.661,3.239 0.646,0 2.053,-0.138 2.053,-0.138 l 0.116,1.435 a 20.138,20.138 0 0 1 -2.354,0.255 c -2.368,-0.001 -3.176,-0.904 -3.176,-4.24 z m -53.176,0 v -6.087 h -1.637 v -1.5 h 1.637 v -3.541 h 1.718 v 3.541 h 3.668 v 1.5 h -3.668 v 5.531 c 0,2.523 0.162,3.239 1.661,3.239 0.645,0 2.053,-0.138 2.053,-0.138 l 0.115,1.435 a 20.114,20.114 0 0 1 -2.353,0.255 c -2.376,-0.001 -3.187,-0.904 -3.187,-4.24 z m 87.539,3.286 a 11.765,11.765 0 0 1 -4.153,0.925 c -2.1,0 -3.253,-1.2 -3.253,-3.541 0,-2.226 1.154,-3.2 3.531,-3.433 l 3.622,-0.346 v -0.992 c 0,-1.62 -0.692,-2.2 -2.076,-2.2 -1.616,0 -4.361,0.3 -4.361,0.3 l -0.069,-1.316 a 27.894,27.894 0 0 1 4.522,-0.509 c 2.608,0 3.715,1.2 3.715,3.722 v 5.928 c 0.046,0.671 0.6,0.925 1.338,1.018 l -0.069,1.365 a 3.522,3.522 0 0 1 -2.74,-0.921 z m -3.668,-4.748 c -1.407,0.139 -1.961,0.81 -1.961,2.086 0,1.343 0.577,2.129 1.754,2.129 a 12.191,12.191 0 0 0 3.622,-0.717 v -3.822 z m -56.683,-0.274 c 0,-4.4 1.893,-6.086 4.823,-6.086 3.068,0 4.637,1.619 4.637,5.414 l -0.093,1.319 h -7.613 c 0,2.476 0.761,3.771 3.022,3.771 1.731,0 4.246,-0.207 4.246,-0.207 l 0.045,1.365 a 40.124,40.124 0 0 1 -4.5,0.37 c -3.429,0.001 -4.56,-2.015 -4.56,-5.946 z m 1.731,-0.741 h 6 c 0,-2.87 -0.878,-3.888 -2.907,-3.888 -1.956,0 -3.063,1.088 -3.086,3.888 z m -41.162,6.248 0.093,-1.5 c 0,0 2.63,0.393 3.806,0.393 1.893,0 2.907,-0.417 2.907,-1.99 0,-1.2 -0.6,-1.5 -3.114,-1.9 -2.607,-0.417 -3.853,-0.9 -3.853,-3.217 0,-2.545 2.053,-3.378 4.153,-3.378 a 29.439,29.439 0 0 1 4.176,0.439 l -0.046,1.481 a 37.614,37.614 0 0 0 -4.038,-0.371 c -1.43,0 -2.514,0.393 -2.514,1.759 0,1.088 0.553,1.389 3,1.805 2.884,0.486 3.968,1.064 3.968,3.309 0,2.707 -1.706,3.61 -4.476,3.61 a 32.436,32.436 0 0 1 -4.056,-0.44 z m -12.152,-5.507 c 0,-4.4 1.892,-6.086 4.822,-6.086 3.068,0 4.638,1.619 4.638,5.414 l -0.093,1.319 h -7.614 c 0,2.476 0.761,3.771 3.023,3.771 1.731,0 4.245,-0.207 4.245,-0.207 l 0.046,1.365 a 40.148,40.148 0 0 1 -4.5,0.37 c -3.43,0.001 -4.561,-2.015 -4.561,-5.946 z m 1.731,-0.741 h 6 c 0,-2.87 -0.877,-3.888 -2.907,-3.888 -1.956,0 -3.064,1.088 -3.087,3.888 z m 135.385,6.457 -3.438,-5.36 -1.823,0.068 v 5.292 h -1.731 V 136.17 h 1.731 v 9.815 l 1.8,-0.093 3.3,-4.678 h 1.961 l -3.761,5.326 3.923,6.244 z m -12.36,0 v -6.063 c 0,-3.054 -0.346,-4.189 -2.492,-4.189 a 7.876,7.876 0 0 0 -3.253,0.857 v 9.4 h -1.73 v -11.57 h 1.706 v 0.81 a 8.747,8.747 0 0 1 3.577,-1.041 c 3.184,0 3.9,1.573 3.9,5.693 v 6.109 z m -33.855,0 v -16.014 h 5.791 c 3.115,0 4.754,1.226 4.754,4.073 0,2.083 -0.762,3.078 -2.054,3.679 a 3.526,3.526 0 0 1 2.537,3.773 c 0,3.378 -1.938,4.489 -4.937,4.489 z m 1.777,-1.574 h 4.244 c 1.939,0 3.208,-0.625 3.208,-2.985 0,-2.476 -2.1,-2.8 -3.322,-2.8 h -4.13 z m 0,-7.335 h 4.107 c 2.007,0 2.838,-0.95 2.838,-2.87 0,-1.874 -0.969,-2.661 -3,-2.661 h -3.945 z m -21.005,8.909 v -6.063 c 0,-3.054 -0.346,-4.189 -2.491,-4.189 a 7.876,7.876 0 0 0 -3.254,0.857 v 9.4 h -1.725 v -11.57 h 1.71 v 0.81 a 8.747,8.747 0 0 1 3.577,-1.041 c 3.183,0 3.9,1.573 3.9,5.693 v 6.109 z m -24.973,0 v -6.063 c 0,-3.054 -0.346,-4.189 -2.422,-4.189 a 7.609,7.609 0 0 0 -3.254,0.857 13.146,13.146 0 0 1 0.3,3.379 v 6.016 h -1.731 v -5.971 c 0,-3.194 -0.323,-4.281 -2.423,-4.281 a 6.881,6.881 0 0 0 -3.091,0.857 v 9.4 h -1.731 v -11.57 h 1.707 v 0.81 a 7.73,7.73 0 0 1 3.369,-1.041 c 1.546,0 2.4,0.347 3,1.18 a 9.577,9.577 0 0 1 4.107,-1.18 c 3.137,0 3.9,1.5 3.9,5.693 v 6.109 z m -55.367,0 -3.253,-11.57 h 1.846 l 2.7,10.067 h 0.854 l 2.792,-10.067 h 1.777 l -3.254,11.57 z m -7.422,0 v -6.063 c 0,-3.054 -0.346,-4.189 -2.491,-4.189 a 7.876,7.876 0 0 0 -3.254,0.857 v 9.4 H 5.83 v -11.57 h 1.707 v 0.81 a 8.747,8.747 0 0 1 3.577,-1.041 c 3.184,0 3.9,1.573 3.9,5.693 v 6.109 z m -13.306,0 v -16.014 h 1.777 v 16.014 z m 228.608,-0.715 a 7.245,7.245 0 0 1 -0.961,-0.3 10.986,10.986 0 0 1 -1.026,-0.474 c -0.358,-0.188 -0.757,-0.409 -1.189,-0.645 a 2.763,2.763 0 0 1 -2.207,1.021 h -10.946 a 0.028,0.028 0 0 1 -0.016,-0.01 7.882,7.882 0 0 1 -1.507,-0.148 4.2,4.2 0 0 1 -1.213,-0.408 2.352,2.352 0 0 1 -0.789,-0.67 3.1,3.1 0 0 1 -0.473,-0.948 5.835,5.835 0 0 1 -0.212,-1.209 c -0.04,-0.449 -0.057,-0.939 -0.057,-1.486 v -10.1 h 1.979 v 10.1 a 14.445,14.445 0 0 0 0.057,1.47 1.706,1.706 0 0 0 0.3,0.882 1.274,1.274 0 0 0 0.741,0.417 6.87,6.87 0 0 0 1.189,0.123 h 10.952 a 0.81,0.81 0 0 0 0.652,-0.294 2.387,2.387 0 0 0 0.447,-0.769 7.959,7.959 0 0 0 0.342,-1.077 q 0.159,-0.6 0.367,-1.25 a 11.549,11.549 0 0 1 0.48,-1.249 4.724,4.724 0 0 1 0.716,-1.078 3.258,3.258 0 0 1 2.573,-1.053 3.774,3.774 0 0 1 1.776,0.391 3.611,3.611 0 0 1 1.263,1.054 4.481,4.481 0 0 1 0.749,1.518 6.481,6.481 0 0 1 0.244,1.781 7.9,7.9 0 0 1 -0.17,1.756 4.556,4.556 0 0 1 -0.448,1.225 3.312,3.312 0 0 1 -0.635,0.808 2.986,2.986 0 0 1 -0.716,0.457 2.675,2.675 0 0 1 -0.692,0.213 4.2,4.2 0 0 1 -0.578,0.049 4.885,4.885 0 0 1 -0.986,-0.098 z m -0.587,-7.024 a 1.574,1.574 0 0 0 -0.537,0.449 2.407,2.407 0 0 0 -0.366,0.661 c -0.1,0.253 -0.187,0.53 -0.277,0.825 -0.09,0.295 -0.163,0.612 -0.244,0.94 -0.081,0.328 -0.179,0.644 -0.293,0.963 q 0.537,0.281 1,0.514 c 0.3,0.164 0.595,0.3 0.855,0.417 a 7.954,7.954 0 0 0 0.749,0.278 2.569,2.569 0 0 0 0.685,0.09 h 0.2 a 0.814,0.814 0 0 0 0.285,-0.09 1.056,1.056 0 0 0 0.3,-0.229 1.366,1.366 0 0 0 0.277,-0.425 3.711,3.711 0 0 0 0.2,-0.711 6.606,6.606 0 0 0 0.081,-1.069 c 0,-0.074 -0.008,-0.2 -0.024,-0.368 a 3.072,3.072 0 0 0 -0.09,-0.555 3.241,3.241 0 0 0 -0.22,-0.637 2.372,2.372 0 0 0 -0.382,-0.6 1.97,1.97 0 0 0 -0.578,-0.441 1.9,1.9 0 0 0 -0.84,-0.171 1.73,1.73 0 0 0 -0.775,0.159 z m 109.717,6.624 h -0.3 a 0.03,0.03 0 0 1 -0.025,-0.01 8.122,8.122 0 0 1 -1.383,-0.148 4.2,4.2 0 0 1 -1.214,-0.408 2.352,2.352 0 0 1 -0.789,-0.67 3.137,3.137 0 0 1 -0.473,-0.948 6.3,6.3 0 0 1 -0.22,-1.209 c -0.032,-0.449 -0.049,-0.939 -0.049,-1.486 v -8.486 h 1.979 v 8.486 a 14.453,14.453 0 0 0 0.057,1.47 1.706,1.706 0 0 0 0.3,0.882 1.252,1.252 0 0 0 0.741,0.417 7.188,7.188 0 0 0 1.376,0.123 h 12.557 a 2.984,2.984 0 0 0 0.448,-0.049 1.462,1.462 0 0 0 0.578,-0.238 1.538,1.538 0 0 0 0.5,-0.562 2.114,2.114 0 0 0 0.22,-1.046 c 0,-0.156 -0.016,-0.351 -0.041,-0.58 -0.025,-0.229 -0.057,-0.49 -0.089,-0.76 -0.032,-0.27 -0.09,-0.547 -0.131,-0.824 -0.041,-0.277 -0.105,-0.555 -0.154,-0.808 -0.049,-0.253 -0.09,-0.474 -0.13,-0.671 -0.04,-0.197 -0.081,-0.342 -0.106,-0.441 l 1.873,-0.571 a 3.25,3.25 0 0 1 0.081,0.327 c 0.041,0.188 0.09,0.409 0.147,0.678 0.057,0.269 0.106,0.572 0.172,0.9 0.066,0.328 0.113,0.654 0.163,0.981 0.05,0.327 0.089,0.652 0.13,0.964 a 7.856,7.856 0 0 1 0.048,0.808 4.157,4.157 0 0 1 -0.325,1.731 3.607,3.607 0 0 1 -0.863,1.21 3.338,3.338 0 0 1 -1.189,0.7 3.934,3.934 0 0 1 -1.328,0.237 z m -143.567,0 a 5.68,5.68 0 0 1 -2.809,-0.719 4.861,4.861 0 0 1 -1.922,-2.01 3.718,3.718 0 0 1 -0.8,0.8 5.7,5.7 0 0 1 -1.051,0.6 4.59,4.59 0 0 1 -0.773,0.221 4.98,4.98 0 0 1 -0.937,0.081 4.9,4.9 0 0 1 -1.01,-0.114 4.16,4.16 0 0 1 -1.009,-0.383 3.39,3.39 0 0 1 -1.205,-1.062 3.71,3.71 0 0 1 -0.6,-1.543 4.279,4.279 0 0 1 0.13,-2.107 4.775,4.775 0 0 1 1.148,-1.879 9.2,9.2 0 0 1 4.046,-2.245 l -0.2,-1.128 1.93,-0.417 q 0.244,1.054 0.44,1.862 c 0.122,0.548 0.236,1.038 0.334,1.472 0.016,0.081 0.049,0.22 0.1,0.416 0.051,0.196 0.1,0.417 0.162,0.678 0.062,0.261 0.13,0.531 0.2,0.824 0.07,0.293 0.138,0.581 0.212,0.858 0.074,0.277 0.139,0.539 0.2,0.785 0.061,0.246 0.122,0.449 0.171,0.612 a 3.082,3.082 0 0 0 0.619,1.258 2.879,2.879 0 0 0 0.887,0.735 2.951,2.951 0 0 0 0.977,0.334 5.958,5.958 0 0 0 0.781,0.083 h 6.432 a 2.982,2.982 0 0 0 0.449,-0.049 1.427,1.427 0 0 0 0.569,-0.238 1.47,1.47 0 0 0 0.5,-0.562 2.094,2.094 0 0 0 0.221,-1.046 c 0,-0.156 -0.016,-0.351 -0.04,-0.58 -0.024,-0.229 -0.058,-0.49 -0.1,-0.76 -0.042,-0.27 -0.082,-0.547 -0.13,-0.824 -0.048,-0.277 -0.1,-0.555 -0.147,-0.808 -0.047,-0.253 -0.089,-0.474 -0.13,-0.671 -0.041,-0.197 -0.082,-0.342 -0.106,-0.441 l 1.873,-0.571 a 3.268,3.268 0 0 1 0.081,0.327 c 0.041,0.188 0.09,0.409 0.139,0.678 0.049,0.269 0.114,0.572 0.179,0.9 0.065,0.328 0.114,0.654 0.163,0.981 0.049,0.327 0.09,0.652 0.122,0.964 a 6.088,6.088 0 0 1 0.058,0.808 4.289,4.289 0 0 1 -0.326,1.731 3.75,3.75 0 0 1 -0.863,1.21 3.342,3.342 0 0 1 -1.19,0.7 3.961,3.961 0 0 1 -1.328,0.237 z m -8.1,-7.718 a 5.748,5.748 0 0 0 -1.311,0.922 3.088,3.088 0 0 0 -0.733,1.1 2.184,2.184 0 0 0 -0.106,1.233 1.512,1.512 0 0 0 0.31,0.734 2.081,2.081 0 0 0 0.562,0.481 1.558,1.558 0 0 0 0.5,0.188 3.149,3.149 0 0 0 0.545,0.066 3.813,3.813 0 0 0 0.53,-0.032 2.319,2.319 0 0 0 0.455,-0.131 2.381,2.381 0 0 0 1.531,-1.976 4.141,4.141 0 0 0 0.032,-0.939 c -0.032,-0.278 -0.057,-0.465 -0.081,-0.563 l -0.408,-1.8 a 9.46,9.46 0 0 0 -1.822,0.717 z m 98.4,-0.164 1.775,-1.8 1.824,1.822 -1.8,1.8 z m 64.883,-4.557 1.628,-1.7 1.694,1.7 -1.668,1.674 z m -4.007,-0.017 1.628,-1.7 1.695,1.7 -1.67,1.675 z m -33.808,-8.924 0.589,-5.224 a 74.8,74.8 0 0 0 9.14,0.739 c 4.033,0 6.107,-2.445 6.475,-6.578 a 19.126,19.126 0 0 1 -5.58,0.726 c -10.515,0 -13.856,-5.815 -13.856,-17.15 0,-11.335 3.341,-17.545 13.856,-17.545 10.515,0 13.855,6.21 13.855,17.545 q 0,1.2 -0.052,2.322 L 336,105.072 a 81.153,81.153 0 0 1 -0.534,8.276 h 11.758 V 76.39 h 6.784 v 42.97 h -19.434 a 24.188,24.188 0 0 1 -2.165,6.9 c -2.3,3.968 -6.163,5.454 -11.138,5.454 a 48.681,48.681 0 0 1 -9.729,-1.424 z m 3.745,-27.487 c 0,7.736 1.376,11.236 6.879,11.236 5.503,0 6.879,-3.5 6.879,-11.236 0,-7.736 -1.375,-11.631 -6.879,-11.631 -5.504,0 -6.876,3.894 -6.876,11.628 z m -59.3,27.487 0.59,-5.224 a 74.8,74.8 0 0 0 9.139,0.739 c 4.029,0 6.1,-2.442 6.474,-6.568 a 19.207,19.207 0 0 1 -5.548,0.716 c -10.515,0 -13.856,-5.815 -13.856,-17.15 0,-11.335 3.342,-17.545 13.856,-17.545 10.514,0 13.856,6.21 13.856,17.545 0,0.784 -0.017,1.539 -0.05,2.27 v 0 a 81.168,81.168 0 0 1 -0.534,8.276 h 11.787 v -27.5 h 6.781 v 33.51 h -19.46 a 24.154,24.154 0 0 1 -2.166,6.9 c -2.3,3.968 -6.162,5.454 -11.137,5.454 a 48.682,48.682 0 0 1 -9.729,-1.423 z m 3.776,-27.487 c 0,7.736 1.376,11.236 6.879,11.236 5.503,0 6.879,-3.5 6.879,-11.236 0,-7.736 -1.376,-11.631 -6.879,-11.631 -5.503,0 -6.876,3.894 -6.876,11.628 z m -77.776,14.547 a 69.539,69.539 0 0 1 1.693,-12.428 l 5.48,0.766 c 0,0 -1.4,7.361 -0.982,11.225 0.519,4.835 5,8.2 15.171,7.264 V 85.851 h 6.781 v 27.5 h 9.4 v -27.5 h 6.781 v 27.5 h 9.4 v -27.5 h 6.781 v 33.51 H 210.13 v 11.679 a 59.527,59.527 0 0 1 -8.575,0.678 c -15.647,-10e-4 -19.568,-8.055 -19.568,-14.368 z m -39.7,8.223 0.823,-6.307 c 0,0 7.875,1.061 12.047,1.061 4.35,0 6.231,-2.063 6.231,-5.188 0,-2.476 -1.41,-3.6 -7.17,-5.246 -8.993,-2.594 -12.4,-5.658 -12.4,-12.084 0,-8.312 5.524,-11.907 13.635,-11.907 a 83.259,83.259 0 0 1 13.165,1.591 l -0.647,6.425 c 0,0 -8.286,-0.943 -11.7,-0.943 -4.349,0 -6.406,1.592 -6.406,4.245 0,2.534 1.588,3.419 8.287,5.541 8.64,2.77 11.284,5.188 11.284,11.849 0,8.724 -5.936,12.792 -13.811,12.792 -5.464,0 -13.34,-1.829 -13.34,-1.829 z M 102.866,113.135 V 86.609 h 8.11 v 26.7 c 0,4.774 2.352,7.015 7.112,7.015 4.76,0 7.112,-2.3 7.112,-7.015 v -26.7 h 8.108 v 26.526 c 0,10.021 -5.231,14.266 -15.223,14.266 -9.992,0 -15.221,-4.245 -15.221,-14.266 z m -74.9,-6.248 c 0,-13.558 4,-20.985 16.574,-20.985 12.574,0 16.574,7.427 16.574,20.985 0,13.558 -4,20.514 -16.574,20.514 -12.574,0 -16.575,-6.956 -16.575,-20.514 z m 8.346,0 c 0,9.255 1.645,13.44 8.228,13.44 6.583,0 8.229,-4.185 8.229,-13.44 0,-9.255 -1.646,-13.912 -8.229,-13.912 -6.583,0 -8.232,4.658 -8.232,13.912 z m 40.77,19.806 V 93.8 h -10.7 V 86.608 H 95.768 V 93.8 H 85.192 v 32.892 z m -77.073,0 V 86.609 h 8.11 V 119.5 h 14.634 v 7.192 z m 284.524,-49.458 5.407,-5.424 5.407,5.424 -5.407,5.423 z m -11.633,0 5.407,-5.424 5.408,5.424 -5.408,5.423 z" class="logo__text"></path>
		</svg>