<svg xmlns="http://www.w3.org/2000/svg" width="20" height="20" viewBox="0 0 20 20"><defs><style>.a{fill:#fff;}</style></defs><g transform="translate(0)"><path class="a" d="M178.333,172.175h-5.954a.206.206,0,0,0-.205.205v5.954a.206.206,0,0,0,.205.205h5.954a.206.206,0,0,0,.205-.205V172.38A.206.206,0,0,0,178.333,172.175Z" transform="translate(-165.356 -165.357)"/><path class="a" d="M19.366,8.635a.634.634,0,0,0,0-1.267H17.337v-1.3h2.029a.634.634,0,0,0,0-1.267H17.316A2.456,2.456,0,0,0,15.2,2.684V.634a.634.634,0,1,0-1.267,0V2.663h-1.3V.634a.634.634,0,0,0-1.267,0V2.663H8.635V.634a.634.634,0,1,0-1.267,0V2.663h-1.3V.634A.634.634,0,0,0,4.8.634V2.684A2.456,2.456,0,0,0,2.684,4.8H.634a.634.634,0,0,0,0,1.267H2.663v1.3H.634a.634.634,0,1,0,0,1.267H2.663v2.73H.634a.634.634,0,1,0,0,1.267H2.663v1.3H.634a.634.634,0,1,0,0,1.267H2.684A2.456,2.456,0,0,0,4.8,17.316v2.051a.634.634,0,1,0,1.267,0V17.337h1.3v2.029a.634.634,0,1,0,1.267,0V17.337h2.73v2.029a.634.634,0,1,0,1.267,0V17.337h1.3v2.029a.634.634,0,1,0,1.267,0V17.316A2.456,2.456,0,0,0,17.316,15.2h2.051a.634.634,0,1,0,0-1.267H17.337v-1.3h2.029a.634.634,0,1,0,0-1.267H17.337V8.635Zm-4.917,4.342a1.474,1.474,0,0,1-1.473,1.473H7.023a1.474,1.474,0,0,1-1.473-1.473V7.023A1.474,1.474,0,0,1,7.023,5.551h5.954a1.474,1.474,0,0,1,1.473,1.473Z"/></g></svg>