<svg xmlns="http://www.w3.org/2000/svg" width="20" height="19.736" viewBox="0 0 20 19.736"><defs><style>.a{fill:#fff;}</style></defs><g transform="translate(-47.427)"><path class="a" d="M64.587,10.836h2.84V10a10,10,0,0,0-20,0v.836h2.84a4.053,4.053,0,0,1,1.475.277V10a5.685,5.685,0,1,1,11.37,0v1.113A4.053,4.053,0,0,1,64.587,10.836Z" transform="translate(0)"/><path class="a" d="M50.267,256h-2.84v7.462h2.84a2.64,2.64,0,0,0,2.637-2.637v-2.188A2.64,2.64,0,0,0,50.267,256Z" transform="translate(0 -243.726)"/><path class="a" d="M352.97,263.462h2.84V256h-2.84a2.64,2.64,0,0,0-2.637,2.637v2.188A2.64,2.64,0,0,0,352.97,263.462Z" transform="translate(-288.383 -243.726)"/></g></svg>