<svg xmlns="http://www.w3.org/2000/svg" width="20" height="20" viewBox="0 0 20 20"><defs><style>.a{fill:#fff;}</style></defs><path class="a" d="M10,0A10,10,0,1,0,20,10,10.011,10.011,0,0,0,10,0Zm.65,15.933c-.475.079-1.42.277-1.9.317a1.17,1.17,0,0,1-1.024-.533,1.25,1.25,0,0,1-.151-1.144l1.89-5.2H7.5A2.349,2.349,0,0,1,9.35,7.19a7.236,7.236,0,0,1,1.9-.315,1.507,1.507,0,0,1,1.024.533,1.25,1.25,0,0,1,.151,1.144l-1.89,5.2H12.5a2.213,2.213,0,0,1-1.849,2.183Zm.6-9.683A1.25,1.25,0,1,1,12.5,5a1.25,1.25,0,0,1-1.25,1.25Z"/></svg>