<svg xmlns="http://www.w3.org/2000/svg" width="20" height="20.538" viewBox="0 0 20 20.538"><defs><style>.a{fill:#fff;}</style></defs><g transform="translate(-6.71)"><g transform="translate(6.71)"><path class="a" d="M26.364,12.52l-1.888-1.476a7.432,7.432,0,0,0,.044-.775,7.208,7.208,0,0,0-.044-.775l1.89-1.477a.926.926,0,0,0,.223-1.179l-1.963-3.4a.91.91,0,0,0-1.136-.408l-2.228.894a7.637,7.637,0,0,0-1.338-.776L19.586.787A.909.909,0,0,0,18.679,0H14.743a.906.906,0,0,0-.905.78L13.5,3.152a7.873,7.873,0,0,0-1.335.776l-2.234-.9a.928.928,0,0,0-1.127.4l-1.966,3.4a.92.92,0,0,0,.223,1.185L8.947,9.495a6.771,6.771,0,0,0,0,1.55l-1.89,1.477A.926.926,0,0,0,6.835,13.7L8.8,17.1a.908.908,0,0,0,1.136.408l2.228-.894a7.7,7.7,0,0,0,1.337.776l.339,2.362a.908.908,0,0,0,.907.789H18.68a.907.907,0,0,0,.906-.78l.34-2.37a7.91,7.91,0,0,0,1.335-.777l2.234.9a.92.92,0,0,0,.335.063.9.9,0,0,0,.792-.464l1.972-3.414A.924.924,0,0,0,26.364,12.52Zm-9.653,1.172a3.423,3.423,0,1,1,3.423-3.423A3.426,3.426,0,0,1,16.711,13.692Z" transform="translate(-6.71)"/></g></g></svg>