<svg xmlns="http://www.w3.org/2000/svg" viewBox="0 0 76.48 48.05" fill="#4a859e">
  <path d="M0,48.05H67V9.48H0ZM62.27,14.21V43.32H4.74V14.21Z"></path>
  <polygon points="10.83 0 10.83 4.74 71.74 4.74 71.74 37.22 76.48 37.22 76.48 0 10.83 0"></polygon>
  <path
    d="M33.43,39.93c5.55,0,10-4.87,10.16-10.83A10.45,10.45,0,0,0,33.43,18.41c-5.55,0-10.15,4.87-10.15,10.69S27.88,39.93,33.43,39.93Zm0-17.19c3,0,5.42,2.84,5.42,6.36s-2.44,6.36-5.42,6.36S28,32.62,28,29.1,30.46,22.74,33.43,22.74Z">
  </path>
  <rect x="8.12" y="17.6" width="10.15" height="4.74"></rect>
  <rect x="8.12" y="35.19" width="10.15" height="4.74"></rect>
  <rect x="50.08" y="17.6" width="8.8" height="4.74"></rect>
  <rect x="50.08" y="35.19" width="8.8" height="4.74"></rect>
</svg>
