<svg xmlns="http://www.w3.org/2000/svg" width="54.521" height="54.612" viewBox="0 0 54.521 54.612"><defs><style>.a{fill:#00dee6;}</style></defs><g transform="translate(-0.098 0)"><path class="a" d="M50.855,15.054c-.068,0-.131.017-.2.02a.921.921,0,0,0-.013-.127l-1.823-5.94a.922.922,0,0,0-.074-.136,2.813,2.813,0,1,0-4.08-3.689.882.882,0,0,0-.151-.063l-1.843-.369A.94.94,0,0,0,42.3,6.592l1.843.369a.92.92,0,0,0,.167.017A2.8,2.8,0,0,0,45,8.47a.862.862,0,0,0-.109.127L39.2,18.71a.864.864,0,0,0-.05.155,2.85,2.85,0,0,0-.512-.052,2.8,2.8,0,0,0-1.838.7.957.957,0,0,0-.122-.108l-1.623-.948a.94.94,0,0,0-.948,1.623l1.623.948a.891.891,0,0,0,.144.06,2.79,2.79,0,0,0,1.318,2.956.887.887,0,0,0-.065.149l-1.438,6.73a.883.883,0,0,0,0,.125,3.724,3.724,0,0,0-2.317.914.874.874,0,0,0-.086-.091L19.869,22.48a.876.876,0,0,0-.154-.067,2.56,2.56,0,0,0,.039-1.434.885.885,0,0,0,.146-.066l4.794-3.045a.909.909,0,0,0,.09-.086,3.738,3.738,0,0,0,5.26-.1.927.927,0,0,0,.083.074l.732.428a.94.94,0,1,0,.949-1.623l-.732-.428a.856.856,0,0,0-.12-.041,3.629,3.629,0,0,0-1.147-3.867.918.918,0,0,0,.074-.107l2.275-4.568a.92.92,0,0,0,.029-.108,3.723,3.723,0,0,0,4.23-2.116.926.926,0,0,0,.361.161l1.843.369a.908.908,0,0,0,.185.018.94.94,0,0,0,.184-1.861l-1.843-.369a.916.916,0,0,0-.4.01,3.754,3.754,0,1,0-6.192,2.958.876.876,0,0,0-.079.1L28.2,11.279a.843.843,0,0,0-.029.108,3.508,3.508,0,0,0-1.994.115.8.8,0,0,0-.046-.12L25.121,9.795A.94.94,0,1,0,23.534,10.8l1.009,1.587a.916.916,0,0,0,.08.1,3.644,3.644,0,0,0-.818,3.749.854.854,0,0,0-.12.046l-4.794,3.045a.853.853,0,0,0-.12.115,2.7,2.7,0,0,0-2.478-.523.92.92,0,0,0-.064-.157L15.188,17.2a.94.94,0,0,0-1.564,1.043L14.666,19.8a.956.956,0,0,0,.113.131,2.8,2.8,0,0,0-.475.971.967.967,0,0,0-.16-.024l-8.479.564a.87.87,0,0,0-.146.04,2.818,2.818,0,0,0-.535-.819.929.929,0,0,0,.1-.13l.787-1.463a.94.94,0,1,0-1.656-.891l-.787,1.463a.882.882,0,0,0-.046.153,2.848,2.848,0,0,0-.46-.046,2.82,2.82,0,1,0,0,5.64,2.791,2.791,0,0,0,.827-.138.865.865,0,0,0,.066.145l3.657,5.029c.026.036.067.052.1.083a3.749,3.749,0,1,0,5.942,4.56.953.953,0,0,0,.1.061l6.081,2.35a.95.95,0,0,0,.161.029c0,.034-.009.066-.009.1a2.789,2.789,0,0,0,3.494,2.729.878.878,0,0,0,.058.147L28.3,48.122a.916.916,0,0,0,.079.093,3.779,3.779,0,1,0,6.316,1.443.876.876,0,0,0,.116-.05l6.627-4.079a.916.916,0,0,0,.118-.11,2.809,2.809,0,1,0,3.073-4.661.934.934,0,0,0,.823-.615l.631-1.771a.94.94,0,1,0-1.771-.632l-.631,1.771a.936.936,0,0,0,.227.979,2.827,2.827,0,0,0-1.66.163.887.887,0,0,0-.076-.13L39.019,36.98a.869.869,0,0,0-.1-.072,3.741,3.741,0,0,0-1.447-5.472.966.966,0,0,0,.049-.121l1.438-6.73a.916.916,0,0,0,0-.163,2.786,2.786,0,0,0,1.043-.337.9.9,0,0,0,.095.128l1.021.922a.94.94,0,1,0,1.259-1.4l-1.021-.921a.875.875,0,0,0-.132-.078,2.815,2.815,0,0,0,.195-.8.887.887,0,0,0,.167-.019l5.818-1.344a.933.933,0,0,0,.115-.052,3.745,3.745,0,0,0,1.564,1.589.8.8,0,0,0-.057.12l-1.222,4.9a.847.847,0,0,0-.008.167,2.787,2.787,0,0,0-1.138.347.907.907,0,0,0-.1-.128l-1.4-1.26a.94.94,0,1,0-1.26,1.4l1.4,1.26a.909.909,0,0,0,.13.08,2.8,2.8,0,0,0,.845,3.3.941.941,0,0,0-.085.14L45.569,34.2a.94.94,0,1,0,1.772.632l.631-1.771a.866.866,0,0,0,.022-.151c.014,0,.028,0,.042,0a2.817,2.817,0,0,0,1.534-5.181.869.869,0,0,0,.064-.146l1.222-4.9a.945.945,0,0,0,.006-.115,3.76,3.76,0,1,0-.006-7.52ZM20.337,35.72l-6.056-2.34a.889.889,0,0,0-.129-.022A3.46,3.46,0,0,0,12.8,30.012l.469-.737a.94.94,0,1,0-1.586-1.008l-.47.74a.883.883,0,0,0-.083.216,3.62,3.62,0,0,0-2.094.206.913.913,0,0,0-.048-.105L5.332,24.295a.909.909,0,0,0-.111-.1,2.806,2.806,0,0,0,.409-.887.957.957,0,0,0,.1.019l.063,0,8.478-.564a.87.87,0,0,0,.146-.04,2.8,2.8,0,0,0,.41.668.873.873,0,0,0-.115.119L13.7,25.092a.94.94,0,0,0,1.586,1.01L16.3,24.516a.944.944,0,0,0,.058-.15,2.723,2.723,0,0,0,2.323-.465.893.893,0,0,0,.112.118l5.01,3.508-.336,1.609a.939.939,0,0,0,.728,1.112.926.926,0,0,0,.193.02.941.941,0,0,0,.919-.748l.171-.82,6.728,4.71a.889.889,0,0,0,.107.052,3.736,3.736,0,0,0-.241,1.2.882.882,0,0,0-.125,0L25.215,36.1a.9.9,0,0,0-.149.065,2.811,2.811,0,0,0-.978-.971.891.891,0,0,0,.062-.155l.385-1.841a.94.94,0,1,0-1.841-.384l-.385,1.841a.855.855,0,0,0,0,.171,2.8,2.8,0,0,0-1.8.982A.954.954,0,0,0,20.337,35.72Zm20.426,6.051a.867.867,0,0,0,.132.1,2.7,2.7,0,0,0-.3,2.008.88.88,0,0,0-.144.053l-6.627,4.08a.852.852,0,0,0-.081.076,3.76,3.76,0,0,0-.716-.535.918.918,0,0,0,.058-.12l.6-2.031.388-1.319a.94.94,0,0,0-1.8-.531l-.53,1.8L31.276,46.9a.956.956,0,0,0-.011.13c-.05,0-.1-.015-.149-.015a3.739,3.739,0,0,0-1.194.212.863.863,0,0,0-.046-.119L24.97,39.472a.883.883,0,0,0-.113-.116,2.787,2.787,0,0,0,.584-1.4.84.84,0,0,0,.166-.018l6.73-1.438a.826.826,0,0,0,.119-.052,3.756,3.756,0,0,0,1.458,1.57.915.915,0,0,0-.062.118l-.53,1.8a.939.939,0,0,0,.637,1.167.906.906,0,0,0,.265.039.939.939,0,0,0,.9-.674l.53-1.8a.955.955,0,0,0,.011-.13c.05,0,.1.015.149.015a3.722,3.722,0,0,0,1.731-.44.952.952,0,0,0,.067.116ZM47.1,18.74a.883.883,0,0,0-.116,0l-5.818,1.344a.887.887,0,0,0-.143.065,2.841,2.841,0,0,0-.291-.386.9.9,0,0,0,.1-.135l5.7-10.114a.864.864,0,0,0,.05-.155,2.823,2.823,0,0,0,.426.043.941.941,0,0,0,.015.154l1.824,5.94a.94.94,0,0,0,.057.115A3.742,3.742,0,0,0,47.1,18.74Zm0,0" transform="translate(0 0)"/><path class="a" d="M70,21.029c.024,0,.048,0,.073,0l5.6-.429v-.94l-.081-.937-5.658.432a.9.9,0,0,0-.149.042,2.819,2.819,0,0,0-5.41,1.112,2.741,2.741,0,0,0,.038.377.908.908,0,0,0-.157.042l-5.4,2.7a.826.826,0,0,0-.1.079,3.747,3.747,0,1,0-5.366,5.208.843.843,0,0,0-.083.1L52.4,30.464a.94.94,0,1,0,1.656.89l.891-1.656a.919.919,0,0,0,.036-.121,3.475,3.475,0,0,0,2.176-.1.956.956,0,0,0,.05.122L57.95,30.7a.94.94,0,1,0,1.565-1.043l-.737-1.106a.8.8,0,0,0-.093-.093,3.679,3.679,0,0,0,.89-3.332.83.83,0,0,0,.11-.026l5.4-2.7a.857.857,0,0,0,.12-.094,2.757,2.757,0,0,0,2.641.727.868.868,0,0,0,.058.151l.021.033a.91.91,0,0,0,.771.423.948.948,0,0,0,.792-1.468.859.859,0,0,0-.114-.118,2.8,2.8,0,0,0,.528-1.048A.9.9,0,0,0,70,21.029Zm0,0" transform="translate(-46.412 -15.591)"/><path class="a" d="M226.652,194.734l-.382,1.84a.94.94,0,0,0,.729,1.112,1.013,1.013,0,0,0,.193.019.94.94,0,0,0,.919-.749l.382-1.841a.94.94,0,1,0-1.841-.382Zm0,0" transform="translate(-201.656 -172.958)"/></g></svg>