<svg xmlns="http://www.w3.org/2000/svg" width="30.355" height="22.765" viewBox="0 0 30.355 22.765"><defs><style>.a{fill:#fff;}</style></defs><g transform="translate(0 -64.014)"><g transform="translate(11.384 69.705)"><path class="a" d="M192.693,160.014a5.719,5.719,0,0,0-.664.053v1.675c.015,0,.03,0,.047,0a8.747,8.747,0,0,1,4.934,2.041.948.948,0,0,1-1.235,1.44,6.923,6.923,0,0,0-3.7-1.582.4.4,0,0,0-.047,0v3.931a4.365,4.365,0,0,0,1.281.2c2.709,0,5.911-2.184,7.833-3.864C199,162.144,195.356,160.014,192.693,160.014Z" transform="translate(-192.029 -160.014)"/></g><g transform="translate(11.383 64.014)"><g transform="translate(0 0)"><path class="a" d="M210.021,64.014H192.947a.949.949,0,0,0-.949.949v2.893c.222-.021.444-.047.664-.047,3.771,0,8.453,3.123,10.517,5.092a.94.94,0,0,1,.294.679.958.958,0,0,1-.285.685c-.533.522-5.338,5.1-9.912,5.1A6.513,6.513,0,0,1,192,79.228v1.755a3.192,3.192,0,0,0,.666.1c2.645,0,10.445-2.157,12.9-4.559a.948.948,0,0,1,1.326,1.356c-2.956,2.895-11.217,5.1-14.226,5.1a4.681,4.681,0,0,1-.664-.1V85.83a.949.949,0,0,0,.949.949h17.074a.949.949,0,0,0,.949-.949V64.963A.949.949,0,0,0,210.021,64.014Z" transform="translate(-191.997 -64.014)"/></g></g><g transform="translate(6.168 71.433)"><path class="a" d="M109.25,189.166a8.805,8.805,0,0,0-4.887,2.036.946.946,0,0,0-.279,1.024c.061.182,1.417,4,5.166,4.735V195a5.388,5.388,0,0,1-3.1-2.766,6.22,6.22,0,0,1,3.1-1.167Z" transform="translate(-104.033 -189.166)"/></g><g transform="translate(0 67.856)"><g transform="translate(0 0)"><path class="a" d="M11.384,130.717v-1.9c-2.544.235-5.223,1.747-7.822,3.231-1.03.586-2.047,1.167-3.03,1.647A.949.949,0,0,0,.2,135.127c3.223,4.118,7.8,8.222,11.183,8.717v-1.9c-2.242-.5-5.828-3.32-8.964-7.087.683-.366,1.381-.763,2.081-1.163C6.86,132.346,9.288,130.973,11.384,130.717Z" transform="translate(0 -128.814)"/></g></g></g></svg>