<svg xmlns="http://www.w3.org/2000/svg" width="39.153" height="26" viewBox="0 0 39.153 26"><defs><style>.a{fill:#00dee6;}</style></defs><path class="a" d="M434.446,10.706a5.353,5.353,0,0,0,0-10.706,5.406,5.406,0,0,0-.625.038,7.633,7.633,0,0,1,0,10.631A5.406,5.406,0,0,0,434.446,10.706Zm0,0" transform="translate(-400.646)"/><path class="a" d="M217.353,10.706A5.353,5.353,0,1,0,212,5.353,5.359,5.359,0,0,0,217.353,10.706Zm0,0" transform="translate(-195.788)"/><path class="a" d="M354.446,10.706a5.353,5.353,0,0,0,0-10.706,5.406,5.406,0,0,0-.626.038,7.633,7.633,0,0,1,0,10.631A5.406,5.406,0,0,0,354.446,10.706Zm0,0" transform="translate(-326.763)"/><path class="a" d="M11.471,55v7.647H8.412V58.824H0v9.941H8.412V64.941h3.059v7.647H14a7.69,7.69,0,0,1,0-2.294h-.239v-13H14A7.69,7.69,0,0,1,14,55Zm0,0" transform="translate(0 -50.794)"/><path class="a" d="M221.449,201.912a5.353,5.353,0,1,0,0,6.882h2.656l1.813,1.611,1.376-1.224,1.376,1.224,1.813-1.611h1.209l3.212-3.441-3.212-3.441ZM230.7,206.5h-1.085l-.94.836-1.376-1.224-1.376,1.224-.94-.836h-2.4a5.319,5.319,0,0,0,0-2.294H230.7l1.071,1.147Zm0,0" transform="translate(-195.788 -184.706)"/></svg>