<svg xmlns="http://www.w3.org/2000/svg" width="122.069" height="118" viewBox="0 0 122.069 118"><defs><style>.a{fill:#fff;}</style></defs><g transform="translate(-2 -3)"><path class="a" d="M15.207,27.414A12.2,12.2,0,0,0,27.231,17.241H50.985l-2.631,2.631,2.877,2.877,7.542-7.542L51.232,7.665l-2.877,2.877,2.631,2.631H27.231A12.2,12.2,0,1,0,15.207,27.414Z" transform="translate(1.034 0)"/><path class="a" d="M70.1,13.172H56.694a12.207,12.207,0,1,0,0,4.069H70.1a21.362,21.362,0,0,1,0,42.724H37.374L40,57.335l-2.877-2.877L29.586,62l7.542,7.542L40,66.665l-2.631-2.631H70.1a25.431,25.431,0,1,0,0-50.862Z" transform="translate(28.537 0)"/><circle class="a" cx="12" cy="12" r="12" transform="translate(98.069 97)"/><path class="a" d="M33.207,49A12.207,12.207,0,1,0,45.231,63.241H68.985l-2.631,2.631,2.877,2.877,7.542-7.542-7.542-7.542-2.877,2.877,2.631,2.631H45.231A12.2,12.2,0,0,0,33.207,49Z" transform="translate(19.655 47.586)"/><path class="a" d="M27.431,87.034h4.244l-2.631,2.631,2.877,2.877L39.463,85l-7.542-7.542-2.877,2.877,2.631,2.631H27.431a21.362,21.362,0,1,1,0-42.724H32.7a12.207,12.207,0,1,0,0-4.069H27.431a25.431,25.431,0,1,0,0,50.862Z" transform="translate(0 23.793)"/></g></svg>