<svg xmlns="http://www.w3.org/2000/svg" width="39.152" height="35.115" viewBox="0 0 39.152 35.115"><defs><style>.a{fill:#00dee6;}</style></defs><g transform="translate(0 -23.714)"><g transform="translate(8.89 23.714)"><path class="a" d="M106.051,36.021h3.962V47.775a2.158,2.158,0,0,0,2.158,2.158h5.891a2.158,2.158,0,0,0,2.158-2.158V36.021h3.961a1.62,1.62,0,0,0,1.146-2.767l-9.065-9.066a1.624,1.624,0,0,0-2.293,0l-9.063,9.066a1.621,1.621,0,0,0,1.145,2.767Z" transform="translate(-104.431 -23.714)"/></g><g transform="translate(0 40.426)"><path class="a" d="M37.206,220.029a1.946,1.946,0,0,0-1.945,1.947v8.14a4.428,4.428,0,0,1-4.424,4.422H8.316a4.427,4.427,0,0,1-4.422-4.422v-8.14a1.947,1.947,0,1,0-3.893,0v8.14a8.325,8.325,0,0,0,8.316,8.316H30.837a8.325,8.325,0,0,0,8.316-8.316v-8.14A1.947,1.947,0,0,0,37.206,220.029Z" transform="translate(0 -220.029)"/></g></g></svg>