<svg xmlns="http://www.w3.org/2000/svg" width="19.61" height="15.92" viewBox="0 0 19.61 15.92"><defs><style>.a{fill:#fff;}</style></defs><g transform="translate(0 -3.522)"><path class="a" d="M17.252,6.171H14.417V5.879a2.358,2.358,0,0,0-2.357-2.357H7.55A2.358,2.358,0,0,0,5.193,5.879v.291H2.357A2.358,2.358,0,0,0,0,8.528v8.557a2.358,2.358,0,0,0,2.357,2.357h14.9a2.358,2.358,0,0,0,2.357-2.357V8.528A2.359,2.359,0,0,0,17.252,6.171ZM9.8,17a4.453,4.453,0,1,1,4.453-4.453A4.457,4.457,0,0,1,9.8,17Zm2.357-4.453A2.357,2.357,0,1,1,9.8,10.187,2.361,2.361,0,0,1,12.162,12.544Z"/></g></svg>