<svg xmlns="http://www.w3.org/2000/svg" width="56.957" height="42.524" viewBox="0 0 56.957 42.524"><defs><style>.a{fill:#70c33f;}</style></defs><g transform="translate(0 -4.037)"><g transform="translate(0 4.037)"><path class="a" d="M47.7,13.882A12.043,12.043,0,0,0,25.9,9.416L13.538,27.706A12.042,12.042,0,0,0,33.486,41.2L45.852,22.913A11.958,11.958,0,0,0,47.7,13.882Zm-10.15-2.476c-.309-.07-2.907-.568-5.088,2.651l-3.279,4.85a2.013,2.013,0,0,1-1.666.883,1.973,1.973,0,0,1-1.123-.347,2.007,2.007,0,0,1-.538-2.787l3.279-4.848c3.89-5.753,9.239-4.337,9.464-4.272a2.005,2.005,0,0,1-1.049,3.87ZM30.165,38.947a8.027,8.027,0,1,1-13.3-8.988l4.934-7.3a2.375,2.375,0,0,1,3.295-.636l9.369,6.334a2.372,2.372,0,0,1,.638,3.293Z" transform="translate(9.033 -3.97)"/><path class="a" d="M24.7,16.574A12.352,12.352,0,1,0,12.168,28.737,12.355,12.355,0,0,0,24.7,16.574Zm-5.434,2.011h-.054L5.386,18.22a2.008,2.008,0,0,1,.105-4.015l13.829.361a2.01,2.01,0,0,1-.052,4.019Z" transform="translate(0 -4.037)"/></g></g></svg>