<svg xmlns="http://www.w3.org/2000/svg" width="14.61" height="14.641" viewBox="0 0 14.61 14.641"><defs><style>.a{fill:#fff;}</style></defs><g transform="translate(-0.539)"><g transform="translate(0.539 0)"><path class="a" d="M14.766,10.745,12.723,8.7a1.359,1.359,0,0,0-2.262.511,1.39,1.39,0,0,1-1.605.876A6.3,6.3,0,0,1,5.061,6.294a1.323,1.323,0,0,1,.876-1.605,1.359,1.359,0,0,0,.511-2.262L4.4.383a1.457,1.457,0,0,0-1.97,0L1.048,1.77C-.339,3.229,1.194,7.1,4.623,10.526s7.3,5.035,8.756,3.576l1.386-1.386A1.457,1.457,0,0,0,14.766,10.745Z" transform="translate(-0.539 0)"/></g></g></svg>