<svg xmlns="http://www.w3.org/2000/svg" width="30" height="30" viewBox="0 0 30 30"><defs><style>.a{fill:#404596;}</style></defs><path class="a" d="M25.607,4.393A15,15,0,0,0,4.393,25.607,15,15,0,0,0,25.607,4.393ZM7.031,16.406a1.406,1.406,0,1,1-2.812,0V13.594a1.406,1.406,0,1,1,2.812,0Zm4.688,2.344a1.406,1.406,0,1,1-2.813,0v-7.5a1.406,1.406,0,1,1,2.813,0Zm4.687,2.813a1.406,1.406,0,1,1-2.813,0V8.437a1.406,1.406,0,0,1,2.813,0Zm4.687-2.813a1.406,1.406,0,1,1-2.813,0v-7.5a1.406,1.406,0,1,1,2.813,0Zm3.281-.937a1.406,1.406,0,0,1-1.406-1.406V13.594a1.406,1.406,0,0,1,2.813,0v2.812A1.406,1.406,0,0,1,24.375,17.812Z" transform="translate(0)"/></svg>