<svg xmlns="http://www.w3.org/2000/svg" width="12.34" height="11.31" viewBox="0 0 12.34 11.31"><defs><style>.a{fill:#fff;}</style></defs><path class="a" d="M12.233,23.588a.507.507,0,0,0-.4-.195H2.185l-.143-1.6a.507.507,0,0,0-.5-.461H.507a.507.507,0,0,0,0,1.014h.566l.555,6.189c0,.007,0,.014,0,.022a.51.51,0,0,0,.007.057l.02.226v.013a1.951,1.951,0,0,0,.729,1.308,1.536,1.536,0,1,0,2.655.422H7.814a1.536,1.536,0,1,0,1.445-1.014H3.6A.941.941,0,0,1,2.734,29l8.1-.476a.507.507,0,0,0,.462-.383l1.03-4.119a.507.507,0,0,0-.092-.435Z" transform="translate(0 -21.334)"/></svg>