<svg xmlns="http://www.w3.org/2000/svg" width="28.1" height="41.056" viewBox="0 0 28.1 41.056">
  <g id="DoctelluLogo" transform="translate(-1.7)">
    <g id="Group_22" data-name="Group 22">
      <g id="Group_17" data-name="Group 17">
        <path id="Path_9" data-name="Path 9" d="M8.886,23.2l13.645.239a8.042,8.042,0,0,1-.273,10.354C16.982,40.006,3.792,33.713,8.886,23.2Z" transform="translate(1.075 4.3)" fill="none" stroke="#fff" stroke-width="1"/>
        <path id="Path_10" data-name="Path 10" d="M29.3,21c0,3.2-3.1,6.6-6.3,6.6l-12.9-.2a6.454,6.454,0,0,1-5.7-4.2A3.983,3.983,0,0,1,3.9,21V18A10.457,10.457,0,0,1,14.3,7.6h4.6A10.457,10.457,0,0,1,29.3,18Z" fill="none" stroke="#fff" stroke-width="1"/>
        <g id="Group_6" data-name="Group 6">
          <circle id="Ellipse_1" data-name="Ellipse 1" cx="1.7" cy="1.7" r="1.7" transform="translate(10.5 15.9)" fill="#fff"/>
          <g id="Group_2" data-name="Group 2">
            <circle id="Ellipse_2" data-name="Ellipse 2" cx="1.2" cy="1.2" r="1.2" transform="translate(11 16.4)" fill="#eefdff"/>
          </g>
          <g id="Group_3" data-name="Group 3">
            <path id="Path_11" data-name="Path 11" d="M12.9,17.3a.4.4,0,1,1-.4-.4C12.7,17,12.9,17.1,12.9,17.3Z" fill="#eefdff"/>
          </g>
          <g id="Group_4" data-name="Group 4">
            <circle id="Ellipse_3" data-name="Ellipse 3" cx="0.1" cy="0.1" r="0.1" transform="translate(12 18.3)" fill="#eefdff"/>
          </g>
          <g id="Group_5" data-name="Group 5">
            <path id="Path_12" data-name="Path 12" d="M11.7,18.1h0c-.1.1-.1,0-.1,0Z" fill="#eefdff"/>
          </g>
        </g>
        <g id="Group_11" data-name="Group 11">
          <circle id="Ellipse_4" data-name="Ellipse 4" cx="1.7" cy="1.7" r="1.7" transform="translate(15 15.9)" fill="#fff"/>
          <g id="Group_7" data-name="Group 7">
            <circle id="Ellipse_5" data-name="Ellipse 5" cx="1.2" cy="1.2" r="1.2" transform="translate(15.5 16.4)" fill="#eefdff"/>
          </g>
          <g id="Group_8" data-name="Group 8">
            <path id="Path_13" data-name="Path 13" d="M17.4,17.3a.4.4,0,0,1-.8,0c0-.2.2-.3.4-.3S17.4,17.1,17.4,17.3Z" fill="#eefdff"/>
          </g>
          <g id="Group_9" data-name="Group 9">
            <circle id="Ellipse_6" data-name="Ellipse 6" cx="0.1" cy="0.1" r="0.1" transform="translate(16.5 18.3)" fill="#eefdff"/>
          </g>
          <g id="Group_10" data-name="Group 10">
            <path id="Path_14" data-name="Path 14" d="M16.2,18.1h0c-.1.1-.1,0-.1,0Z" fill="#eefdff"/>
          </g>
        </g>
        <g id="Group_16" data-name="Group 16">
          <circle id="Ellipse_7" data-name="Ellipse 7" cx="1.7" cy="1.7" r="1.7" transform="translate(19.1 15.9)" fill="#fff"/>
          <g id="Group_12" data-name="Group 12">
            <circle id="Ellipse_8" data-name="Ellipse 8" cx="1.2" cy="1.2" r="1.2" transform="translate(19.6 16.4)" fill="#eefdff"/>
          </g>
          <g id="Group_13" data-name="Group 13">
            <path id="Path_15" data-name="Path 15" d="M21.4,17.3a.4.4,0,1,1-.4-.4A.43.43,0,0,1,21.4,17.3Z" fill="#eefdff"/>
          </g>
          <g id="Group_14" data-name="Group 14">
            <circle id="Ellipse_9" data-name="Ellipse 9" cx="0.1" cy="0.1" r="0.1" transform="translate(20.5 18.3)" fill="#eefdff"/>
          </g>
          <g id="Group_15" data-name="Group 15">
            <path id="Path_16" data-name="Path 16" d="M20.3,18.1c0,.1-.1.1,0,0-.1.1-.1,0-.1,0Z" fill="#eefdff"/>
          </g>
        </g>
        <path id="Path_17" data-name="Path 17" d="M17,7.7h-.9l.1-5.3H17Z" fill="#fff"/>
        <path id="Path_18" data-name="Path 18" d="M17.7,2a1.051,1.051,0,0,1-2.1-.1,1.028,1.028,0,0,1,1.1-1A1.272,1.272,0,0,1,17.7,2Z" fill="#fff"/>
        <path id="Path_19" data-name="Path 19" d="M17.3.3a.3.3,0,1,1-.6,0,.3.3,0,1,1,.6,0Z" fill="#fff"/>
      </g>
      <g id="Group_21" data-name="Group 21">
        <g id="Group_18" data-name="Group 18">
          <path id="Path_20" data-name="Path 20" d="M20.9,33a1.11,1.11,0,0,1-1.1,1.1H18.1v1.7a1.1,1.1,0,0,1-2.2,0V33A1.11,1.11,0,0,1,17,31.9h2.8A1.11,1.11,0,0,1,20.9,33Z" fill="#fff"/>
        </g>
        <g id="Group_19" data-name="Group 19">
          <path id="Path_21" data-name="Path 21" d="M18.1,30.2V33A1.11,1.11,0,0,1,17,34.1H14.2a1.1,1.1,0,1,1,0-2.2h1.7V30.2a1.1,1.1,0,1,1,2.2,0Z" fill="#fff"/>
        </g>
        <path id="Path_22" data-name="Path 22" d="M15.9,34.1v.3h1.3a1.216,1.216,0,0,0,1.2-1.2V31.9h-.3V33A1.11,1.11,0,0,1,17,34.1Z" fill="#fff"/>
        <g id="Group_20" data-name="Group 20" opacity="0.25">
          <path id="Path_23" data-name="Path 23" d="M14.1,31.9A1.11,1.11,0,0,0,13,33a1.05,1.05,0,0,0,.5.9c.5-.7,1-1.4,1.5-2h-.9Z" fill="#fff"/>
          <path id="Path_24" data-name="Path 24" d="M17,29.1a1.11,1.11,0,0,0-1.1,1.1v.9a15.583,15.583,0,0,1,2-1.6A1.489,1.489,0,0,0,17,29.1Z" fill="#fff"/>
        </g>
      </g>
      <path id="Path_25" data-name="Path 25" d="M.7,25.4a5.459,5.459,0,0,0,2.8-3.1,6.282,6.282,0,0,0,3.4,4.6Z" transform="translate(1)" fill="#fff"/>
    </g>
  </g>
</svg>
