<svg xmlns="http://www.w3.org/2000/svg" width="90" height="90" viewBox="0 0 90 90">
  <g id="BPMS" transform="translate(0 -0.004)">
    <g id="Layer_1" data-name="Layer 1" transform="translate(0 0.004)">
      <path id="Path_73" data-name="Path 73" d="M6.377,40.252a37.509,37.509,0,0,1,23.871-28.7l-.57,1.02a3,3,0,0,0,1.065,4.021,2.821,2.821,0,0,0,1.5.39,2.9,2.9,0,0,0,2.521-1.5L38.77,8.445A3,3,0,0,0,37.66,4.5L30.713.388A2.9,2.9,0,0,0,26.737,1.5,3,3,0,0,0,27.8,5.534L28.507,6A43.3,43.3,0,0,0,.645,39.232a43.869,43.869,0,0,0,1.92,22.28,2.911,2.911,0,0,0,2.746,1.935,2.566,2.566,0,0,0,.99-.18A3,3,0,0,0,8.042,59.5,37.778,37.778,0,0,1,6.377,40.252Z" transform="translate(0 -0.004)" fill="#1f94ce"/>
      <path id="Path_74" data-name="Path 74" d="M72.014,47.175a2.881,2.881,0,0,0-4.1.345A36.565,36.565,0,0,1,16.2,52.381h.93a3,3,0,0,0,0-5.9H9.388a2.881,2.881,0,0,0-2.146.675,3,3,0,0,0-1.02,1.965h0a1.29,1.29,0,0,0,0,.24v8.177a3,3,0,0,0,2.911,3h0a3,3,0,0,0,2.911-3V56.507a42.431,42.431,0,0,0,20.18,9.587,40.766,40.766,0,0,0,7.367.66A42.672,42.672,0,0,0,72.359,51.316,3,3,0,0,0,72.014,47.175Z" transform="translate(3.111 23.246)" fill="#1f94ce"/>
      <path id="Path_75" data-name="Path 75" d="M73.875,54.032a2.9,2.9,0,0,0-3.976-1.08l-.96.555a4.657,4.657,0,0,1,.12-.63,43.374,43.374,0,0,0-7.067-32.332A42.416,42.416,0,0,0,34.4,2.75a3,3,0,0,0-1.005,5.791A36.67,36.67,0,0,1,57.22,23.92,37.508,37.508,0,0,1,63.342,51.8l-.42-.75a2.911,2.911,0,0,0-3.976-1.08A3,3,0,0,0,57.881,54l4.006,7.037a2.9,2.9,0,0,0,1.77,1.365,2.521,2.521,0,0,0,.75.105,3,3,0,0,0,1.5-.39l6.857-4.066a3,3,0,0,0,1.11-4.021Z" transform="translate(15.759 1.37)" fill="#1f94ce"/>
    </g>
  </g>
</svg>
