<svg xmlns="http://www.w3.org/2000/svg" width="91" height="87" viewBox="0 0 91 87">
  <g id="CRM" transform="translate(0 0.001)">
    <g id="Layer_1" data-name="Layer 1" transform="translate(0 -0.001)">
      <path id="Path_76" data-name="Path 76" d="M33.383,8.431a2.869,2.869,0,0,1,2.984,2.8H39.35a5.877,5.877,0,0,0-11.74,0v2.8a5.877,5.877,0,0,0,11.74,0H36.367a2.981,2.981,0,0,1-5.863,0v-2.8a2.869,2.869,0,0,1,2.879-2.8Z" transform="translate(13.579 2.803)" fill="#1f94ce"/>
      <path id="Path_77" data-name="Path 77" d="M44.73,5.623H37.39V19.67h2.984V14.04h4.475a1.494,1.494,0,0,1,1.492,1.408V19.67h2.984V15.447a4.067,4.067,0,0,0-1.149-2.8,4.127,4.127,0,0,0,1.149-2.815A4.318,4.318,0,0,0,44.73,5.623Zm-4.475,5.616v-2.8H44.73a1.407,1.407,0,1,1,0,2.8Z" transform="translate(18.389 2.795)" fill="#1f94ce"/>
      <path id="Path_78" data-name="Path 78" d="M54.972,14.036h-.82L51.168,5.62H47.23V19.667h2.984V11.461l1.88,5.391H57.15l1.88-5.391v8.207h2.984V5.62h-4.1Z" transform="translate(23.228 2.798)" fill="#1f94ce"/>
      <path id="Path_79" data-name="Path 79" d="M3.94,18.74H6.924v2.8H3.94Z" transform="translate(1.938 9.327)" fill="#1f94ce"/>
      <path id="Path_80" data-name="Path 80" d="M7.87,18.74h2.984v2.8H7.87Z" transform="translate(3.87 9.327)" fill="#1f94ce"/>
      <path id="Path_81" data-name="Path 81" d="M11.81,18.74h2.984v2.8H11.81Z" transform="translate(5.808 9.327)" fill="#1f94ce"/>
      <path id="Path_82" data-name="Path 82" d="M59.4,28.111H35.915a4.318,4.318,0,0,0-4.475,4.208v2.8a4.318,4.318,0,0,0,4.475,4.208v2.815a4.318,4.318,0,0,0-4.475,4.208v2.8a4.318,4.318,0,0,0,4.475,4.208v2.815a4.318,4.318,0,0,0-4.475,4.208v2.8a4.318,4.318,0,0,0,4.475,4.208H59.4a4.318,4.318,0,0,0,4.475-4.208v-2.8A4.318,4.318,0,0,0,59.4,56.176V53.405A4.318,4.318,0,0,0,63.872,49.2V46.352A4.318,4.318,0,0,0,59.4,42.143V39.328a4.318,4.318,0,0,0,4.475-4.208v-2.8A4.318,4.318,0,0,0,59.4,28.111Zm1.492,32.273v2.8A1.494,1.494,0,0,1,59.4,64.592H35.915a1.494,1.494,0,0,1-1.492-1.408v-2.8a1.494,1.494,0,0,1,1.492-1.408H59.4a1.494,1.494,0,0,1,1.462,1.408Zm-4.4-4.208H38.839V53.405H56.458Zm4.4-9.824v2.8A1.494,1.494,0,0,1,59.4,50.56H35.915a1.494,1.494,0,0,1-1.492-1.408v-2.8a1.494,1.494,0,0,1,1.492-1.408H59.4a1.494,1.494,0,0,1,1.462,1.408Zm-4.4-4.208H38.839V39.328H56.458Zm4.4-7.024A1.494,1.494,0,0,1,59.4,36.527H35.915a1.494,1.494,0,0,1-1.492-1.408v-2.8a1.494,1.494,0,0,1,1.492-1.408H59.4a1.494,1.494,0,0,1,1.492,1.408Z" transform="translate(15.462 13.988)" fill="#1f94ce"/>
      <path id="Path_83" data-name="Path 83" d="M83.66,0h-41.1a7.188,7.188,0,0,0-7.34,7.009V22.464H4.475A4.3,4.3,0,0,0,0,26.658V82.787a4.3,4.3,0,0,0,4.475,4.208H80.721A4.3,4.3,0,0,0,85.2,82.787V30.731A7.121,7.121,0,0,0,91,23.857V7.009A7.188,7.188,0,0,0,83.66,0ZM4.475,25.25h30.9a7.285,7.285,0,0,0,7.19,5.616h5.177l2.447,2.815H2.984V26.658A1.494,1.494,0,0,1,4.475,25.25Zm76.246,58.93H4.475a1.494,1.494,0,0,1-1.492-1.393V36.482H52.646l1.1,1.273a4.542,4.542,0,0,0,3.431,1.5,4.475,4.475,0,0,0,4.177-2.8H82.243V82.787a1.494,1.494,0,0,1-1.492,1.393Zm-19.08-50.5V30.866H82.2v2.815Zm26.375-9.824a4.3,4.3,0,0,1-4.475,4.208H58.7v6.949a1.5,1.5,0,0,1-1.492,1.5,1.579,1.579,0,0,1-1.179-.524L49.155,28.1H42.591a4.3,4.3,0,0,1-4.475-4.208V7.009A4.3,4.3,0,0,1,42.591,2.8H83.66a4.3,4.3,0,0,1,4.475,4.208Z" transform="translate(0 0.001)" fill="#1f94ce"/>
      <path id="Path_84" data-name="Path 84" d="M22.056,57.111A15.825,15.825,0,0,0,38.2,41.671a15.825,15.825,0,0,0-16.141-15.44A15.84,15.84,0,0,0,5.9,41.671a15.84,15.84,0,0,0,16.156,15.44Zm0-2.815a13.392,13.392,0,0,1-8.235-2.771l8.831-8.446H35.169A13.009,13.009,0,0,1,22.056,54.341Zm10.308-20.5a12.319,12.319,0,0,1,2.8,6.47H25.592Zm-2.074-1.917-8.235,7.862-8.235-7.862a13.623,13.623,0,0,1,16.41,0ZM11.733,33.794l8.235,7.877-8.235,7.877a12.166,12.166,0,0,1,0-15.755Z" transform="translate(2.902 13.052)" fill="#1f94ce"/>
      <path id="Path_85" data-name="Path 85" d="M3.94,48.72H6.924v2.8H3.94Z" transform="translate(1.938 24.244)" fill="#1f94ce"/>
      <path id="Path_86" data-name="Path 86" d="M7.87,48.72h32.3v2.8H7.87Z" transform="translate(3.87 24.244)" fill="#1f94ce"/>
      <path id="Path_87" data-name="Path 87" d="M3.94,52.47h8.8v2.8H3.94Z" transform="translate(1.938 26.11)" fill="#1f94ce"/>
      <path id="Path_88" data-name="Path 88" d="M11.81,52.47H38.23v2.8H11.81Z" transform="translate(5.808 26.11)" fill="#1f94ce"/>
    </g>
  </g>
</svg>
