<svg xmlns="http://www.w3.org/2000/svg" width="63" height="63" viewBox="0 0 63 63">
  <g id="ERM" transform="translate(0 -0.001)">
    <g id="Layer_1" data-name="Layer 1" transform="translate(0 0.001)">
      <ellipse id="Ellipse_12" data-name="Ellipse 12" cx="1.21" cy="1.234" rx="1.21" ry="1.234" transform="translate(30.29 20.408)" fill="#1f94ce"/>
      <path id="Path_58" data-name="Path 58" d="M31,16.917a1.212,1.212,0,0,0,1.21-1.222V7.545a1.21,1.21,0,1,0-2.42,0v8.149A1.212,1.212,0,0,0,31,16.917Z" transform="translate(0.47 1.035)" fill="#1f94ce"/>
      <path id="Path_59" data-name="Path 59" d="M53.765,24.217H48.816a1.055,1.055,0,0,0-1.033.583,1.4,1.4,0,0,0,0,1.315,1.055,1.055,0,0,0,1.033.583h1.959L43.633,33.81l-9.1-4.54A1.253,1.253,0,0,0,33.1,29.5l-9.265,9.209L19.684,36.65a1.223,1.223,0,0,0-1.1,0l-8.163,4.028V36.522h3.714a1.045,1.045,0,0,0,1.024-.577,1.383,1.383,0,0,0,0-1.3,1.045,1.045,0,0,0-1.024-.577H10.469V31.6h3.714a1.045,1.045,0,0,0,1.024-.577,1.383,1.383,0,0,0,0-1.3,1.045,1.045,0,0,0-1.024-.577H10.469V26.7h3.714a1.047,1.047,0,0,0,1.069-.563,1.4,1.4,0,0,0,0-1.343,1.047,1.047,0,0,0-1.069-.563H10.469V22.994a1.235,1.235,0,0,0-2.469,0V48.327a1.238,1.238,0,0,0,1.235,1.234h44.53A1.047,1.047,0,0,0,54.834,49a1.4,1.4,0,0,0,0-1.343,1.047,1.047,0,0,0-1.069-.563H50.051V30.876L52.52,28.42v1.956a1.24,1.24,0,0,0,2.48,0V25.451h0a1.238,1.238,0,0,0-1.235-1.234ZM12.949,47.093h-2.48V43.426l2.48-1.164Zm4.949,0h-2.48V40.97l2.48-1.234Zm4.939,0H20.367V39.736l2.469,1.234Zm4.949,0H25.347V40.725l2.469-2.468Zm4.949,0H30.265V35.8l2.469-2.456Zm4.949,0H35.214V32.366l2.469,1.222Zm4.949,0h-2.48V34.846l2.48,1.164Zm4.949,0H45.1V35.8l2.48-2.456Z" transform="translate(0 3.572)" fill="#1f94ce"/>
      <ellipse id="Ellipse_13" data-name="Ellipse 13" cx="1.21" cy="1.234" rx="1.21" ry="1.234" transform="translate(30.29 60.503)" fill="#1f94ce"/>
      <path id="Path_60" data-name="Path 60" d="M61.772,55.591H59.8v-36.4a3.679,3.679,0,0,0-3.7-3.691H42.91L34.627,1.735a3.7,3.7,0,0,0-6.263,0L20.069,15.5H6.873a3.679,3.679,0,0,0-3.7,3.691v36.4H1.228A1.224,1.224,0,0,0,0,56.825a6.158,6.158,0,0,0,6.152,6.147H25.967a1.039,1.039,0,0,0,1.018-.577,1.39,1.39,0,0,0,0-1.3,1.039,1.039,0,0,0-1.018-.577H6.152A3.692,3.692,0,0,1,2.67,58.047H60.33a3.7,3.7,0,0,1-3.482,2.491H37.033a1.039,1.039,0,0,0-1.018.577,1.39,1.39,0,0,0,0,1.3,1.039,1.039,0,0,0,1.018.577H56.848A6.158,6.158,0,0,0,63,56.848a1.412,1.412,0,0,0-.385-.923,1.07,1.07,0,0,0-.843-.334ZM30.454,3.027a1.267,1.267,0,0,1,1.015-.57,1.229,1.229,0,0,1,1.015.57L44.849,23.459a1.207,1.207,0,0,1,.183.652A1.222,1.222,0,0,1,43.8,25.333H19.2a1.222,1.222,0,0,1-1.228-1.222,1.207,1.207,0,0,1,.183-.652S30.3,3.295,30.454,3.027ZM57.335,55.591H5.665v-36.4a1.235,1.235,0,0,1,1.228-1.234H18.587L16.06,22.12A3.685,3.685,0,0,0,19.2,27.754H43.8a3.677,3.677,0,0,0,3.7-3.679,3.629,3.629,0,0,0-.558-1.956L44.4,17.905h11.7a1.235,1.235,0,0,1,1.228,1.234Z" transform="translate(0 -0.001)" fill="#1f94ce"/>
    </g>
  </g>
</svg>
