<svg xmlns="http://www.w3.org/2000/svg" width="93" height="93" viewBox="0 0 93 93">
  <g id="ESA" transform="translate(0)">
    <g id="Layer_1" data-name="Layer 1" transform="translate(0)">
      <rect id="Rectangle_2" data-name="Rectangle 2" width="31" height="3.105" transform="translate(31 7.755)" fill="#1f94ce"/>
      <path id="Path_63" data-name="Path 63" d="M70.261,48.8a5.431,5.431,0,0,0-5.432-5.437H61.7V21.67H58.6V43.36H54.732a5.418,5.418,0,0,0-3.794,9.3,5.368,5.368,0,0,0-.812,6.725,5.405,5.405,0,0,0-2.613,7.154H35.35a13.931,13.931,0,0,0-5.993-11.446,9.333,9.333,0,0,0,5.993-8.628,1.492,1.492,0,0,0-.443-1.086A1.589,1.589,0,0,0,33.8,44.92H21.4V29.41H18.3V44.92a4.647,4.647,0,0,0-4.65,4.65v34.1h3.1V49.57a1.554,1.554,0,0,1,1.55-1.56H32.058a6.22,6.22,0,0,1-6.008,4.65H21.4a1.556,1.556,0,0,0,0,3.1A10.863,10.863,0,0,1,32.25,66.61v1.56a1.554,1.554,0,0,0,1.55,1.545h9.064a5.325,5.325,0,0,0-.531,2.332A5.417,5.417,0,0,0,47.75,77.47v6.2h3.1v-6.2h6.982a5.628,5.628,0,0,0,4.609-2.614,5.277,5.277,0,0,0,.248-5.17,5.39,5.39,0,0,0,4.384-8.256,5.5,5.5,0,0,0,3.062-4.026,5.375,5.375,0,0,0-1.586-4.759A5.359,5.359,0,0,0,70.261,48.8ZM57.832,74.365H47.75a2.328,2.328,0,0,1,0-4.65H57.832a2.328,2.328,0,0,1,0,4.65Zm4.65-7.755H52.4a2.328,2.328,0,0,1,0-4.65H62.482a2.328,2.328,0,0,1,0,4.65ZM64.8,58.87H54.732a2.328,2.328,0,0,1,0-4.65H64.8a2.328,2.328,0,0,1,0,4.65Zm0-7.755H54.732a2.328,2.328,0,0,1,0-4.65H64.8a2.328,2.328,0,0,1,0,4.65Z" transform="translate(6.5 9.335)" fill="#1f94ce"/>
      <path id="Path_64" data-name="Path 64" d="M21.25,15.53a1.532,1.532,0,0,0-.62-1.13l-1.609-1.216a4.23,4.23,0,0,0-8.385.773,9.007,9.007,0,0,1-3.484-1.431l-.531-.372a1.515,1.515,0,0,0-1.594-.086A1.55,1.55,0,0,0,4.2,13.5v1.273A8.972,8.972,0,0,0,5.81,19.923L4.643,21.1a1.565,1.565,0,0,0-.325,1.674,1.477,1.477,0,0,0,1.476.959h7.514a5.833,5.833,0,0,0,5.8-5.208l1.742-1.76A1.57,1.57,0,0,0,21.25,15.53Zm-4.8,1.188a1.506,1.506,0,0,0-.443,1.087,2.772,2.772,0,0,1-2.746,2.79H9.323A1.566,1.566,0,0,0,9,18.893a5.984,5.984,0,0,1-1.476-2.647,12.124,12.124,0,0,0,4.665,1.016,1.554,1.554,0,0,0,1.55-1.545v-1.7a1.137,1.137,0,0,1,2.273,0,1.528,1.528,0,0,0,.605,1.23l.738.558Z" transform="translate(2 4.2)" fill="#1f94ce"/>
      <path id="Path_65" data-name="Path 65" d="M37.65,19.355v-3.1H33A1.554,1.554,0,0,0,31.45,17.8v4.65h-3.1v3.1h3.1v6.2h3.1v-6.2h3.1v-3.1h-3.1v-3.09Z" transform="translate(13.5 7)" fill="#1f94ce"/>
      <path id="Path_66" data-name="Path 66" d="M45.3,11.92H26.7a4.647,4.647,0,0,0-4.65,4.65v18.6a4.647,4.647,0,0,0,4.65,4.65H45.3a4.8,4.8,0,0,0,3.367-1.367,4.5,4.5,0,0,0,1.357-3.283V16.57a4.505,4.505,0,0,0-1.357-3.284A4.8,4.8,0,0,0,45.3,11.92Zm1.55,23.25a1.554,1.554,0,0,1-1.55,1.545H26.7a1.554,1.554,0,0,1-1.55-1.545V16.57a1.554,1.554,0,0,1,1.55-1.56H45.3a1.554,1.554,0,0,1,1.55,1.56Z" transform="translate(10.5 5.135)" fill="#1f94ce"/>
      <path id="Path_67" data-name="Path 67" d="M23.25,5.42H4.65A4.647,4.647,0,0,0,0,10.07v18.6a4.647,4.647,0,0,0,4.65,4.65h18.6a4.647,4.647,0,0,0,4.65-4.65V10.07A4.647,4.647,0,0,0,23.25,5.42ZM24.8,28.67a1.554,1.554,0,0,1-1.55,1.545H4.65A1.551,1.551,0,0,1,3.174,28.67V10.07A1.551,1.551,0,0,1,4.65,8.51h18.6a1.554,1.554,0,0,1,1.55,1.56Z" transform="translate(0 2.335)" fill="#1f94ce"/>
      <path id="Path_68" data-name="Path 68" d="M67.35,0H48.75A4.647,4.647,0,0,0,44.1,4.65v18.6a4.647,4.647,0,0,0,4.65,4.65h18.6A4.647,4.647,0,0,0,72,23.25V4.65A4.647,4.647,0,0,0,67.35,0Zm1.476,23.25A1.537,1.537,0,0,1,67.35,24.8H48.75a1.537,1.537,0,0,1-1.476-1.545V15.5h3.262a7.734,7.734,0,0,0,15.175,0H68.9ZM53.4,13.95a4.654,4.654,0,0,1,9.3.189A4.582,4.582,0,0,1,58.05,18.6,4.647,4.647,0,0,1,53.4,13.95ZM68.9,12.4H65.638a7.734,7.734,0,0,0-15.175,0H47.2V4.65A1.537,1.537,0,0,1,48.676,3.1h18.6A1.537,1.537,0,0,1,68.752,4.65Z" transform="translate(21)" fill="#1f94ce"/>
      <rect id="Rectangle_3" data-name="Rectangle 3" width="3.1" height="3.105" transform="translate(44.95 63.555)" fill="#1f94ce"/>
    </g>
  </g>
</svg>
