<svg xmlns="http://www.w3.org/2000/svg" width="63" height="63" viewBox="0 0 63 63">
  <g id="IBFO" transform="translate(0 0)">
    <g id="Layer_1" data-name="Layer 1" transform="translate(0 0)">
      <path id="Path_61" data-name="Path 61" d="M56.089,4.11H46.523a.941.941,0,0,0-.926.946.953.953,0,0,0,.926.957h9.567a5.134,5.134,0,0,1,5.059,5.2V40.937H50.5a.916.916,0,0,0-.885.443.985.985,0,0,0,0,1.017.916.916,0,0,0,.885.443h10.57a5.117,5.117,0,0,1-4.982,4.25H31.963a.942.942,0,0,0-.915.957.931.931,0,0,0,.915.946h5.3v3.749a.989.989,0,0,0,.22.627l2.2,2.587H23.5l2.2-2.587a.941.941,0,0,0,.231-.627V48.993h2.094a.941.941,0,0,0,.926-.946.953.953,0,0,0-.926-.957H6.911A5.1,5.1,0,0,1,1.94,42.84H46.567a.916.916,0,0,0,.885-.443.985.985,0,0,0,0-1.017.916.916,0,0,0-.885-.443H1.852V11.209a5.134,5.134,0,0,1,5.059-5.2h9.7a.942.942,0,0,0,.915-.957.931.931,0,0,0-.915-.946h-9.7A7.006,7.006,0,0,0,0,11.209V41.882a7.018,7.018,0,0,0,6.911,7.11H24.049v3.418l-3,3.544H19.839a2.722,2.722,0,0,0-2.689,2.723v.957a2.807,2.807,0,0,0,.777,1.98,2.623,2.623,0,0,0,1.912.812H43.205a2.713,2.713,0,0,0,2.667-2.757v-.991a2.713,2.713,0,0,0-2.667-2.757H42.1l-3-3.566V48.936H56.089A7.018,7.018,0,0,0,63,41.825V11.209a7.006,7.006,0,0,0-6.911-7.1ZM44.01,58.678v.957a.841.841,0,0,1-.827.855H19.839a.8.8,0,0,1-.581-.251.858.858,0,0,1-.235-.6v-.957a.841.841,0,0,1,.816-.855H43.205a.853.853,0,0,1,.8.855Z" transform="translate(0 0.573)" fill="#1fa7ce"/>
      <path id="Path_62" data-name="Path 62" d="M16.751,15.041a.935.935,0,0,0,1-.866A13.538,13.538,0,0,1,21.92,5.458c.287-.262.573-.524.871-.752L30.01,15.884a.918.918,0,0,0,.772.422H43.82a13.464,13.464,0,0,1-7.583,11.269l-5.3-5.162a3.46,3.46,0,1,0-6.459-1.641,3.718,3.718,0,0,0,.265,1.367l-.827.672a.954.954,0,0,0-.346.633.969.969,0,0,0,.191.7.906.906,0,0,0,1.3.16l.827-.672a3.356,3.356,0,0,0,3.78.171L34.3,28.3a12.384,12.384,0,0,1-3.516.5A13.176,13.176,0,0,1,17.952,17.958a.958.958,0,0,0-.4-.608.9.9,0,0,0-.7-.133.914.914,0,0,0-.6.409.972.972,0,0,0-.129.73A15.376,15.376,0,0,0,20,26l-6.9,5.606a3.4,3.4,0,0,0-2.017-.672A3.534,3.534,0,0,0,11.108,38a3.477,3.477,0,0,0,3.406-3.544,3.706,3.706,0,0,0-.265-1.356l7.142-5.754A14.59,14.59,0,0,0,35.84,29.853l3.053,2.963a3.428,3.428,0,1,0,6.073.023l6.745-6.472a3.331,3.331,0,0,0,3.453.058,3.588,3.588,0,0,0-.456-6.392,3.353,3.353,0,0,0-3.781.952,3.638,3.638,0,0,0-.484,3.992l-6.69,6.472a3.312,3.312,0,0,0-1.786-.513,3.354,3.354,0,0,0-1.763.5L37.67,28.965a15.521,15.521,0,0,0,7.6-17.29A14.936,14.936,0,0,0,30.781,0,14.72,14.72,0,0,0,20.664,4.056,15.489,15.489,0,0,0,15.913,14a.949.949,0,0,0,.838,1.037Zm9.578,5.7a1.65,1.65,0,1,1,0,.034ZM11.086,36.086a1.63,1.63,0,1,1,1.576-1.629,1.6,1.6,0,0,1-1.576,1.629ZM53.53,21.729a1.577,1.577,0,0,1,1.457,1.008,1.67,1.67,0,0,1-.347,1.777,1.538,1.538,0,0,1-1.721.346,1.632,1.632,0,0,1-.965-1.513,1.6,1.6,0,0,1,1.576-1.618ZM43.115,33.351h0a1.612,1.612,0,1,1-2.733,1.139,1.637,1.637,0,0,1,.43-1.139h0a1.564,1.564,0,0,1,1.1-.5,1.532,1.532,0,0,1,1.1.513ZM43.82,14.4H31.277L24.334,3.646a12.719,12.719,0,0,1,12.6-.15A13.569,13.569,0,0,1,43.82,14.4Z" transform="translate(0.785 0)" fill="#1fa7ce"/>
    </g>
  </g>
</svg>
