<svg id="IRPT" xmlns="http://www.w3.org/2000/svg" width="57" height="63" viewBox="0 0 57 63">
  <path id="Path_18" data-name="Path 18" d="M11.41,14.72h0a1.84,1.84,0,0,1-1.34-.8,1,1,0,0,0-1.46-.13,1.08,1.08,0,0,0-.13,1.49,4.41,4.41,0,0,0,1.88,1.37v1.28a1.035,1.035,0,1,0,2.07,0V16.66a3.18,3.18,0,0,0-1-6.16,1,1,0,0,1-1-1.05,1.05,1.05,0,0,1,1-1.06,1.64,1.64,0,0,1,1.13.55,1,1,0,0,0,1.47,0,1.07,1.07,0,0,0,0-1.49,3.91,3.91,0,0,0-1.54-1V5.27a1.035,1.035,0,1,0-2.07,0v1.2a3.2,3.2,0,0,0,1.1,6.16,1.055,1.055,0,0,1,0,2.11Z" transform="translate(0.712)" fill="#1f94ce"/>
  <path id="Path_19" data-name="Path 19" d="M12.235,23.2c6.814-.066,12.284-5.256,12.224-11.6a10.94,10.94,0,0,0-.827-4.22A29.95,29.95,0,0,1,28.465,7C39.2,7.119,48.3,14.39,50.045,24.25L47.714,22a1.131,1.131,0,0,0-1.525,0,1.027,1.027,0,0,0,0,1.49l4.447,4.22a1.129,1.129,0,0,0,1.579,0l4.447-4.22a1.027,1.027,0,0,0,0-1.49,1.129,1.129,0,0,0-1.579,0l-2.7,2.55C50.86,13.322,40.622,4.891,28.465,4.85a31.249,31.249,0,0,0-5.908.57A12.375,12.375,0,0,0,12.235,0C5.419.066-.054,5.255,0,11.6c-.054,6.345,5.419,11.534,12.235,11.6Zm0-21.09c5.577.049,10.054,4.3,10,9.49.048,5.189-4.426,9.435-10,9.49-5.578-.049-10.059-4.3-10.011-9.49C2.182,6.409,6.659,2.165,12.235,2.11Z" transform="translate(0.018)" fill="#1f94ce"/>
  <path id="Path_20" data-name="Path 20" d="M43.68,45.56h4.14a1.06,1.06,0,0,0,0-2.11H43.68a1.06,1.06,0,0,0,0,2.11Z" transform="translate(3.952 9)" fill="#1f94ce"/>
  <path id="Path_21" data-name="Path 21" d="M43.68,49.78h4.14a1.06,1.06,0,0,0,0-2.11H43.68a1.06,1.06,0,0,0,0,2.11Z" transform="translate(3.952 9)" fill="#1f94ce"/>
  <path id="Path_22" data-name="Path 22" d="M1.9,32l2.7-2.55c1.52,11.212,11.73,19.638,23.869,19.7a37,37,0,0,0,4.007-.24v4a1.039,1.039,0,0,0,1.074,1h6.2a1.055,1.055,0,0,0,0-2.11H34.7V32.27h6.671v5.28a.961.961,0,0,0,.295.74,1.114,1.114,0,0,0,.779.31H46.89a1.114,1.114,0,0,0,.779-.31.961.961,0,0,0,.295-.74V32.27h6.671V51.89H49.7a1.055,1.055,0,0,0,0,2.11H55.86a1.039,1.039,0,0,0,1.074-1V31.22a.96.96,0,0,0-.291-.746,1.114,1.114,0,0,0-.783-.314H33.581a1.114,1.114,0,0,0-.783.314.96.96,0,0,0-.291.746V46.78a32.675,32.675,0,0,1-4.039.22C17.69,46.989,8.529,39.666,6.887,29.75L9.218,32A1.129,1.129,0,0,0,10.8,32a1.027,1.027,0,0,0,0-1.49L6.35,26.25a1.129,1.129,0,0,0-1.579,0L.324,30.47a1.028,1.028,0,0,0,0,1.53,1.112,1.112,0,0,0,.79.322A1.112,1.112,0,0,0,1.9,32Zm41.69.31h2.224v4.22H43.593Z" transform="translate(0.018 9)" fill="#1f94ce"/>
  <ellipse id="Ellipse_11" data-name="Ellipse 11" cx="1.04" cy="1.05" rx="1.04" ry="1.05" transform="translate(43.72 60.9)" fill="#1f94ce"/>
</svg>
