<svg xmlns="http://www.w3.org/2000/svg" width="86.333" height="87.667" viewBox="0 0 86.333 87.667">
  <g id="market-analytics" transform="translate(-0.004 0.002)">
    <g id="Layer_1" data-name="Layer 1" transform="translate(0.004 -0.002)">
      <path id="Path_69" data-name="Path 69" d="M31.331,7.39A1.711,1.711,0,1,0,33.016,9.1,1.687,1.687,0,0,0,31.331,7.39Z" transform="translate(10.989 3.061)" fill="#1f94ce"/>
      <path id="Path_70" data-name="Path 70" d="M42.016,25.926H35.275a1.69,1.69,0,0,0-1.6,1.173l-1.726,5.4-1.781-5.4a1.663,1.663,0,0,0-1.589-1.173h-2.11l-3.056-12.4a1.686,1.686,0,0,0-3.275,0l-3.056,12.4H11.6a1.712,1.712,0,0,0,0,3.422h6.741a1.708,1.708,0,0,0,1.644-1.287l1.726-7.069,1.74,7.069a1.7,1.7,0,0,0,1.631,1.287h2.165l2.987,9.105a1.7,1.7,0,0,0,1.6,1.173,1.677,1.677,0,0,0,1.589-1.173l2.987-9.105h5.481a1.712,1.712,0,0,0,0-3.422Z" transform="translate(3.674 5.068)" fill="#1f94ce"/>
      <path id="Path_71" data-name="Path 71" d="M83.58,72.743l-27.4-25.449A31.264,31.264,0,0,0,51.806,9.035a29.993,29.993,0,0,0-42.915,0,31.151,31.151,0,0,0,0,43.575,30.113,30.113,0,0,0,37.694,4.355L71.934,85.157a8.336,8.336,0,0,0,11.921,0,8.668,8.668,0,0,0-.274-12.414ZM11.275,50.192a27.7,27.7,0,0,1,0-38.739,26.669,26.669,0,0,1,38.146,0,27.681,27.681,0,0,1,0,38.782,26.682,26.682,0,0,1-38.146-.042Zm38.256,4.948h0L49.394,55a29.229,29.229,0,0,0,4.755-4.821l3.823,3.549-5.083,5.146ZM81.47,82.725a5.015,5.015,0,0,1-7.344-.2L55.163,61.418l5.3-5.4L81.279,75.274a5.186,5.186,0,0,1,.192,7.451Z" transform="translate(-0.004 0.002)" fill="#1f94ce"/>
      <path id="Path_72" data-name="Path 72" d="M46.812,13.615a1.69,1.69,0,0,0-2.384-.24,1.713,1.713,0,0,0-.6,1.161,1.733,1.733,0,0,0,.384,1.256,20.7,20.7,0,0,1-1.37,27.57,20.022,20.022,0,0,1-28.61,0,20.787,20.787,0,0,1,0-29.055A20.115,20.115,0,0,1,33.877,9.02a1.678,1.678,0,0,0,2.069-1.159,1.744,1.744,0,0,0-.164-1.3,1.651,1.651,0,0,0-1.014-.791,23.439,23.439,0,0,0-22.9,6.122,24.241,24.241,0,0,0,0,33.932,23.345,23.345,0,0,0,33.378,0,24.292,24.292,0,0,0,1.562-32.207Z" transform="translate(1.825 2.038)" fill="#1f94ce"/>
    </g>
  </g>
</svg>
