<svg xmlns="http://www.w3.org/2000/svg" width="53.002" height="56.571" viewBox="0 0 53.002 56.571">
  <g id="MFR" transform="translate(0 0.005)">
    <g id="Layer_1" data-name="Layer 1">
      <path id="Path_53" data-name="Path 53" d="M21.51,18.34h-5.7a1.44,1.44,0,0,0,0,2.88h5.7a1.44,1.44,0,0,0,0-2.88Z" fill="#1fa7ce"/>
      <path id="Path_54" data-name="Path 54" d="M21.51,30.17h-5.7a1.44,1.44,0,1,0,0,2.88h5.7a1.44,1.44,0,0,0,0-2.88Z" fill="#1fa7ce"/>
      <path id="Path_55" data-name="Path 55" d="M21.51,42.29h-5.7a1.44,1.44,0,0,0,0,2.88h5.7a1.44,1.44,0,1,0,0-2.88Z" fill="#1fa7ce"/>
      <path id="Path_56" data-name="Path 56" d="M49.73,31.75A15,15,0,0,0,37.87,26h-.69V7.74c0-1.65-1-4-6-5.81A38.16,38.16,0,0,0,18.59,0,38.16,38.16,0,0,0,6,1.93C1,3.74,0,6.09,0,7.74V43.63c0,1.65,1,4,6,5.81a37.86,37.86,0,0,0,12.6,1.93,44.069,44.069,0,0,0,7.43-.6,15,15,0,0,0,21.24,2.49,15.44,15.44,0,0,0,2.46-21.51ZM18.6,2.89c10.34,0,15.76,3.16,15.76,4.85S28.94,12.6,18.6,12.6,2.84,9.44,2.84,7.74,8.25,2.89,18.6,2.89Zm0,21.64c-10.35,0-15.74-3.16-15.74-4.85V12A16.33,16.33,0,0,0,6,13.55a37.86,37.86,0,0,0,12.6,1.93,37.84,37.84,0,0,0,12.62-1.93A16.24,16.24,0,0,0,34.33,12v7.64c0,1.73-5.39,4.89-15.74,4.89ZM34.33,24v2.39a15.27,15.27,0,0,0-10.73,9.8,44,44,0,0,1-5,.28c-10.35,0-15.75-3.16-15.75-4.86V24A17,17,0,0,0,6,25.49a38.11,38.11,0,0,0,12.6,1.93,38.05,38.05,0,0,0,12.62-1.93A16.86,16.86,0,0,0,34.33,24ZM18.6,48.49A35.24,35.24,0,0,1,6.94,46.73c-3-1.11-4.09-2.36-4.09-3.1V35.91A16.33,16.33,0,0,0,6,37.42a37.86,37.86,0,0,0,12.6,1.93c1.46,0,2.9-.06,4.3-.19a15.53,15.53,0,0,0,1.45,9,44.3,44.3,0,0,1-5.75.33ZM37.88,53.7A12.44,12.44,0,1,1,50.16,41.27,12.44,12.44,0,0,1,37.88,53.7Z" fill="#1fa7ce"/>
      <path id="Path_57" data-name="Path 57" d="M43.34,39l-4.49-4.23a1.4,1.4,0,0,0-1.94,0L32.43,39a1.46,1.46,0,0,0-.08,2,1.42,1.42,0,0,0,2,.07h0l2.1-2v7.67a1.43,1.43,0,1,0,2.85,0V39.09l2.08,2a1.4,1.4,0,0,0,2-.08A1.45,1.45,0,0,0,43.34,39Z" fill="#1fa7ce"/>
    </g>
  </g>
</svg>
