<svg id="netflow" xmlns="http://www.w3.org/2000/svg" width="63" height="63" viewBox="0 0 63 63">
  <path id="Path_10" data-name="Path 10" d="M14.27,44.22H6A.89.89,0,1,0,6,46h8.28a.88.88,0,1,0,0-1.75Z" transform="translate(0 3.465)" fill="#1f94ce"/>
  <path id="Path_11" data-name="Path 11" d="M14.27,48.65H6a.87.87,0,1,0,0,1.74h8.28a.87.87,0,0,0,0-1.74Z" transform="translate(0 4.447)" fill="#1f94ce"/>
  <path id="Path_12" data-name="Path 12" d="M14.27,53.07H6a.88.88,0,1,0,0,1.75h8.28a.88.88,0,1,0,0-1.75Z" transform="translate(0 4.447)" fill="#1f94ce"/>
  <path id="Path_13" data-name="Path 13" d="M32.41,25.87a3.54,3.54,0,0,0-3.69,3.36,3.71,3.71,0,0,0,7.39,0,3.54,3.54,0,0,0-3.7-3.36Zm0,5a1.62,1.62,0,1,1,1.78-1.61,1.71,1.71,0,0,1-1.78,1.58Z" transform="translate(-1.103 2.222)" fill="#1f94ce"/>
  <path id="Path_14" data-name="Path 14" d="M60.228,37.4H54.036V33.654a2.635,2.635,0,0,0-2.386-2.819H39.344a8.126,8.126,0,0,0-6.607-7.424V20.765H36.8A2.507,2.507,0,0,0,38.729,20a3.116,3.116,0,0,0,.876-2.057V15.16a2.8,2.8,0,0,0-2.782-2.819H32.736V11.265a1.036,1.036,0,0,1,.3-.7.831.831,0,0,1,.662-.239h9.244v6.348A2.8,2.8,0,0,0,45.738,19.5H59.7a2.8,2.8,0,0,0,2.782-2.819V2.937A2.794,2.794,0,0,0,59.7.129h-14a2.8,2.8,0,0,0-2.792,2.808V8.511H33.664a2.8,2.8,0,0,0-2.753,2.808v1.076H26.187a2.806,2.806,0,0,0-2.782,2.819V18a2.806,2.806,0,0,0,2.782,2.819h4.724v2.528A8.134,8.134,0,0,0,23.28,31.5a1.45,1.45,0,0,0,0,.2H14.287v-.054A4.688,4.688,0,0,0,9.66,26.9H9.582V11.146h9.94A2.8,2.8,0,0,0,22.3,8.328V2.819A2.8,2.8,0,0,0,19.522,0H11.466A.831.831,0,0,0,10.8.239a1.036,1.036,0,0,0-.3.7,1.048,1.048,0,0,0,.3.7.842.842,0,0,0,.662.246h8.056a.831.831,0,0,1,.662.239,1.036,1.036,0,0,1,.3.7V8.328a1.036,1.036,0,0,1-.3.7.831.831,0,0,1-.662.239H2.946a.831.831,0,0,1-.662-.239,1.036,1.036,0,0,1-.3-.7V2.819a1.036,1.036,0,0,1,.3-.7.831.831,0,0,1,.662-.239H7.728a.842.842,0,0,0,.662-.246,1.048,1.048,0,0,0,.3-.7,1.036,1.036,0,0,0-.3-.7A.831.831,0,0,0,7.728,0H2.9A2.8,2.8,0,0,0,.164,2.819V8.328a2.8,2.8,0,0,0,2.782,2.819H7.728V27.285a4.708,4.708,0,0,0-2.753,4.3,5.218,5.218,0,0,0,1.459,3.451A4.2,4.2,0,0,0,9.66,36.322a4.663,4.663,0,0,0,4.25-2.787h9.66a8.13,8.13,0,0,0,6.134,5.9v9.037a4.7,4.7,0,0,0-3.622,4.25H19.609V46.382a2.8,2.8,0,0,0-2.782-2.819H2.782A2.8,2.8,0,0,0,0,46.382V60.175a2.8,2.8,0,0,0,2.782,2.819H16.788a2.8,2.8,0,0,0,2.782-2.819V54.591h6.7a4.661,4.661,0,1,0,5.2-6.133V39.593c3.714.029,6.938-2.844,7.728-6.886H51.65c.213,0,.531.377.531.947V37.4h-8.52a2.8,2.8,0,0,0-2.782,2.819v5.509a2.8,2.8,0,0,0,2.782,2.819h2.821a.941.941,0,0,0,0-1.872H43.661A.842.842,0,0,1,43,46.426a1.048,1.048,0,0,1-.3-.7V40.217a1.036,1.036,0,0,1,.3-.7.831.831,0,0,1,.662-.239H60.228a.841.841,0,0,1,.659.243,1.046,1.046,0,0,1,.307.693v5.509a1.058,1.058,0,0,1-.306.7.852.852,0,0,1-.66.25h-10a.941.941,0,0,0,0,1.872h1.932v5a4.709,4.709,0,0,0-3.7,4.616,4.661,4.661,0,1,0,9.322,0,4.721,4.721,0,0,0-3.767-4.637V48.544h6.2A2.8,2.8,0,0,0,63,45.725V40.217A2.807,2.807,0,0,0,60.228,37.4ZM44.772,2.97a1.036,1.036,0,0,1,.3-.7.831.831,0,0,1,.662-.239H59.7a.831.831,0,0,1,.662.239,1.036,1.036,0,0,1,.3.7V16.73a1.036,1.036,0,0,1-.3.7.831.831,0,0,1-.662.239h-14a.831.831,0,0,1-.662-.239,1.036,1.036,0,0,1-.3-.7ZM25.26,18.032V15.16a1.036,1.036,0,0,1,.3-.7.831.831,0,0,1,.662-.239H36.851a.831.831,0,0,1,.662.239,1.036,1.036,0,0,1,.3.7v2.787a1.036,1.036,0,0,1-.3.7.831.831,0,0,1-.662.239H26.226a.831.831,0,0,1-.662-.239,1.036,1.036,0,0,1-.3-.7Zm-15.6,16.4a2.482,2.482,0,0,1-2.442-1.323,3.129,3.129,0,0,1,0-3.024A2.482,2.482,0,0,1,9.66,28.759,2.482,2.482,0,0,1,12.1,30.081a3.129,3.129,0,0,1,0,3.024A2.482,2.482,0,0,1,9.66,34.429Zm8.085,25.735a1.036,1.036,0,0,1-.3.7.831.831,0,0,1-.662.239h-14a.831.831,0,0,1-.662-.239,1.036,1.036,0,0,1-.3-.7V46.382a1.036,1.036,0,0,1,.3-.7.831.831,0,0,1,.662-.239H16.788a.831.831,0,0,1,.662.239,1.036,1.036,0,0,1,.3.7Zm15.764-7.1a3.216,3.216,0,0,1-1.544,3.092,2.592,2.592,0,0,1-3.147-.487,3.38,3.38,0,0,1-.73-3.444,2.748,2.748,0,0,1,5.392.849Zm-2.2-15.342a6.278,6.278,0,1,1,6.211-6.272A6.248,6.248,0,0,1,31.307,37.721ZM55.948,58.163a3.229,3.229,0,0,1-1.541,3.108,2.6,2.6,0,0,1-3.159-.476,3.39,3.39,0,0,1-.743-3.452,2.848,2.848,0,0,1,2.622-2.019,2.526,2.526,0,0,1,1.939.768,3.139,3.139,0,0,1,.881,2.072Z" transform="translate(0 0.004)" fill="#1f94ce"/>
  <path id="Path_15" data-name="Path 15" d="M50.42,5.59h8.27a.92.92,0,0,0,1-.87.92.92,0,0,0-1-.87H50.42a.92.92,0,0,0-1,.87.92.92,0,0,0,1,.87Z" transform="translate(-2.22 0.004)" fill="#1f94ce"/>
  <path id="Path_16" data-name="Path 16" d="M50.42,10h8.27a.93.93,0,0,0,1-.88.92.92,0,0,0-1-.87H50.42a.92.92,0,0,0-1,.87.93.93,0,0,0,1,.88Z" transform="translate(-2.22 0.004)" fill="#1f94ce"/>
  <path id="Path_17" data-name="Path 17" d="M50.42,14.44h8.27a.88.88,0,1,0,0-1.75H50.42a.88.88,0,1,0,0,1.75Z" transform="translate(-2.22 0.996)" fill="#1f94ce"/>
</svg>
