<svg xmlns="http://www.w3.org/2000/svg" width="63" height="58.06" viewBox="0 0 63 58.06">
  <g id="OMS" transform="translate(0 0.06)">
    <g id="Layer_1" data-name="Layer 1" transform="translate(0 -0.06)">
      <path id="Path_48" data-name="Path 48" d="M57.12,8.1H45.8V4.69a.923.923,0,0,0-1.845,0V8.1H40.108a.85.85,0,1,0,0,1.7H43.95v3.59h-.7A1.694,1.694,0,0,0,41.5,15V25a1.694,1.694,0,0,0,1.754,1.62h.7v6.73a.923.923,0,0,0,1.845,0V26.62h.7A1.694,1.694,0,0,0,48.249,25V15a1.694,1.694,0,0,0-1.754-1.62h-.7V9.8H57.12a3.892,3.892,0,0,1,4.055,3.7V42.56H1.855V13.5a3.828,3.828,0,0,1,1.25-2.679A3.935,3.935,0,0,1,5.911,9.8H22.132v1.66h-.689a1.694,1.694,0,0,0-1.764,1.61v10a1.694,1.694,0,0,0,1.764,1.61h.689v7.5a.934.934,0,0,0,1.855,0v-7.5h.689a1.694,1.694,0,0,0,1.764-1.61v-10a1.694,1.694,0,0,0-1.764-1.61h-.689V9.8H27.82a.85.85,0,1,0,0-1.7H23.967V7.68a.934.934,0,0,0-1.855,0V8.1H5.89A5.666,5.666,0,0,0,0,13.5V43.41a5.666,5.666,0,0,0,5.89,5.4H19.973v4.32L16.992,56.3H15.806a.85.85,0,1,0,0,1.7H47.1a.85.85,0,1,0,0-1.7H46.008l-2.981-3.17V48.81H57.12A5.656,5.656,0,0,0,63,43.41V13.5a5.656,5.656,0,0,0-5.88-5.4ZM46.4,24.92H43.362V15.09H46.4ZM24.565,23H21.524V13.15h3.042ZM57.12,47.11H38.384a.85.85,0,1,0,0,1.7h2.788v3.78h-2.3a.85.85,0,1,0,0,1.7h2.808l1.886,2H19.435l1.9-2h2.8a.85.85,0,1,0,0-1.7h-2.3V48.81H34.471a.85.85,0,1,0,0-1.7H5.89a4.05,4.05,0,0,1-3.934-2.85H61.043A3.978,3.978,0,0,1,57.12,47.11Z" transform="translate(0 0.06)" fill="#1f94ce"/>
      <path id="Path_49" data-name="Path 49" d="M9.54,24.79a.89.89,0,0,0-.92.85v2.05a1.68,1.68,0,0,0,1.74,1.61H11v4.53a.92.92,0,0,0,1.83,0V29.3h.68a1.68,1.68,0,0,0,1.74-1.61v-10a1.68,1.68,0,0,0-1.74-1.61h-.68V14.72a.92.92,0,0,0-1.83,0v1.36h-.68a1.68,1.68,0,0,0-1.74,1.61V22a.92.92,0,0,0,1.83,0V17.78h3v9.83h-3v-2a.88.88,0,0,0-.87-.82Z" transform="translate(0 0.06)" fill="#1f94ce"/>
      <path id="Path_50" data-name="Path 50" d="M31.89,23h.69v4.52a.91.91,0,0,0,1.82,0V23h.69a1.68,1.68,0,0,0,1.74-1.61V14.73a.92.92,0,0,0-1.83,0V21.3H32V5.93h3v5.18a.92.92,0,0,0,1.83,0V5.84a1.68,1.68,0,0,0-1.74-1.61H34.4V.85a.91.91,0,1,0-1.82,0V4.23h-.69a1.68,1.68,0,0,0-1.73,1.61V21.39A1.68,1.68,0,0,0,31.89,23Z" transform="translate(0.468 0.06)" fill="#1f94ce"/>
      <path id="Path_51" data-name="Path 51" d="M49.53,23.28a.93.93,0,0,0,.8.45,1,1,0,0,0,.44-.11l4.2-2.1-.3.73a.84.84,0,0,0,.53,1.1.87.87,0,0,0,.32.06.92.92,0,0,0,.86-.55l1-2.51a.83.83,0,0,0-.52-1.1l-2.87-1a.93.93,0,0,0-1.18.49.84.84,0,0,0,.53,1.1l.67.23L49.9,22.13a.82.82,0,0,0-.37,1.15Z" transform="translate(0.86 0.06)" fill="#1f94ce"/>
      <path id="Path_52" data-name="Path 52" d="M5.4,39.87a.92.92,0,0,0,.84.52,1.15,1.15,0,0,0,.36-.07l11.78-4.69,1.07,2.61a.86.86,0,0,0,.53.49,1,1,0,0,0,.76,0L40.2,28.92a.82.82,0,0,0,.37-1.15,1,1,0,0,0-1.24-.34l-18.54,9.3-1-2.53a.88.88,0,0,0-.5-.48,1,1,0,0,0-.72,0l-12.65,5a.82.82,0,0,0-.48,1.11Z" transform="translate(0 0.06)" fill="#1f94ce"/>
    </g>
  </g>
</svg>
