<svg id="SANEX" xmlns="http://www.w3.org/2000/svg" width="63" height="63" viewBox="0 0 63 63">
  <path id="Path_8" data-name="Path 8" d="M56.848,0H35.591a1.227,1.227,0,0,0-1.228,1.227V11.255a1.248,1.248,0,0,0,2.183.808,3.438,3.438,0,0,1,6.02,1.972,3.423,3.423,0,0,1-5.989,2.5,1.241,1.241,0,0,0-1.36-.336,1.225,1.225,0,0,0-.792,1.154v.315a5.851,5.851,0,0,0-3.045-1.049,6.072,6.072,0,0,0-2.639.441V9.44a1.268,1.268,0,0,0-.392-.937,1.184,1.184,0,0,0-.938-.321H6.152A6.187,6.187,0,0,0,0,14.329V56.842A6.187,6.187,0,0,0,6.152,63H48.666a6.187,6.187,0,0,0,6.152-6.157V54.22a1.229,1.229,0,1,0-2.457,0v2.622a3.7,3.7,0,0,1-3.7,3.692H28.637v-8.79a1.225,1.225,0,0,0-2.152-.808A3.472,3.472,0,0,1,23.9,52.111a3.414,3.414,0,0,1-2.518-1.049,3.465,3.465,0,0,1-.914-2.591,3.445,3.445,0,0,1,6.02-1.982,1.225,1.225,0,0,0,2.152-.808V36.818h6.426a5.816,5.816,0,0,0-.457,2.287,5.93,5.93,0,0,0,1.868,4.311,5.841,5.841,0,0,0,4.446,1.573,5.9,5.9,0,0,0,5.461-5.528,5.81,5.81,0,0,0-.447-2.643h6.426v6.294a1.229,1.229,0,1,0,2.457,0V35.559a1.227,1.227,0,0,0-1.228-1.227h-.122a5.918,5.918,0,0,0,.65-5.727h7.654A1.227,1.227,0,0,0,63,27.377V6.157A6.187,6.187,0,0,0,56.848,0ZM2.457,14.329a3.691,3.691,0,0,1,3.7-3.682H26.181v8.79a1.225,1.225,0,0,0,.792,1.143,1.211,1.211,0,0,0,1.36-.336,3.425,3.425,0,1,1,5.106,4.563,3.388,3.388,0,0,1-2.518,1.1,3.443,3.443,0,0,1-2.589-1.185,1.241,1.241,0,0,0-1.36-.336,1.225,1.225,0,0,0-.792,1.154v8.79H19.755a5.885,5.885,0,1,0-11.319-2.58,5.831,5.831,0,0,0,.447,2.643H2.457ZM23.541,42.8a5.881,5.881,0,0,0-3.959,9.892,5.95,5.95,0,0,0,6.6,1.416v6.42H6.152a3.7,3.7,0,0,1-3.7-3.692V36.818h8.791a1.225,1.225,0,0,0,.812-2.15,3.437,3.437,0,1,1,4.6-5.108,3.4,3.4,0,0,1,1.1,2.517,3.455,3.455,0,0,1-1.178,2.591,1.23,1.23,0,0,0,.822,2.15h8.791v6.42a5.777,5.777,0,0,0-2.639-.441ZM42.758,36.5a3.433,3.433,0,1,1-4.6,5.1,3.353,3.353,0,0,1-1.1-2.507A3.434,3.434,0,0,1,38.241,36.5a1.244,1.244,0,0,0,.335-1.343,1.229,1.229,0,0,0-1.157-.8H28.637v-6.43a5.925,5.925,0,0,0,5.725-.661v.115a1.227,1.227,0,0,0,1.228,1.227h7.644a5.907,5.907,0,0,0,.65,5.727H43.57a1.225,1.225,0,0,0-.812,2.15Zm17.775-10.28H51.772a1.205,1.205,0,0,0-.832,2.1,3.487,3.487,0,0,1,1.178,2.591,3.4,3.4,0,0,1-1.1,2.517,3.437,3.437,0,1,1-4.6-5.108,1.186,1.186,0,0,0-.812-2.1H36.819V19.752a5.916,5.916,0,1,0,0-10.909V2.465H56.848a3.692,3.692,0,0,1,3.685,3.692Z" transform="translate(0 0)" fill="#1f94ce"/>
  <path id="Path_9" data-name="Path 9" d="M52.79,45.23a1.25,1.25,0,0,0-.86.35,1.16,1.16,0,0,0,0,1.66,1.29,1.29,0,0,0,.86.34,1.25,1.25,0,0,0,.85-.34,1.14,1.14,0,0,0,0-1.66,1.21,1.21,0,0,0-.85-.35Z" transform="translate(0.94 2.304)" fill="#1f94ce"/>
</svg>
