<svg xmlns="http://www.w3.org/2000/svg" width="13.007" height="18.041" viewBox="0 0 13.007 18.041">
  <path id="XMLID_1685_" d="M35.825,0H25.182C24.532,0,24,.353,24,.784V17.256c0,.314.3.608.739.726a1.723,1.723,0,0,0,.443.059,1.407,1.407,0,0,0,.857-.255l4.346-3.059,4.582,3.059a1.721,1.721,0,0,0,1.3.176c.443-.1.739-.392.739-.706V.784C37.007.353,36.475,0,35.825,0ZM34.642,15.354l-3.429-2.334a1.545,1.545,0,0,0-.828-.275h0a1.578,1.578,0,0,0-.857.294l-3.163,2.235V1.569h8.277Z" transform="translate(-24)" fill="#333"/>
</svg>
