<svg xmlns="http://www.w3.org/2000/svg" width="21" height="21" viewBox="0 0 21 21">
  <path id="XMLID_77_" d="M7.67,8.491H.8a.809.809,0,0,1-.8-.8A7.691,7.691,0,0,1,7.67,0a.809.809,0,0,1,.8.8V7.67A.786.786,0,0,1,7.67,8.491Zm-6-1.621H6.893v-5.2A6.055,6.055,0,0,0,1.666,6.871ZM11.208,21a9.592,9.592,0,0,1-9.792-9.382.916.916,0,0,1,.913-.913h8.377V2.328a.916.916,0,0,1,.913-.913A9.712,9.712,0,0,1,21,11.208,9.82,9.82,0,0,1,11.208,21Zm-7.9-8.468a7.831,7.831,0,0,0,7.9,6.642A7.989,7.989,0,0,0,12.532,3.31v8.309a.916.916,0,0,1-.913.913Z" fill="#333"/>
</svg>
