<svg xmlns="http://www.w3.org/2000/svg" width="21" height="15.277" viewBox="0 0 21 15.277">
  <path id="XMLID_1705_" d="M20.408,16.615l-9.566-4.3a.869.869,0,0,0-.752,0l-9.566,4.3a.9.9,0,0,0,.023,1.64l.82.387v3.189a.569.569,0,0,0,1.139,0v-2.6l1.367.729v3.872a.75.75,0,0,0,.137.433A7.821,7.821,0,0,0,10.363,27.5a7.71,7.71,0,0,0,6.377-3.234.878.878,0,0,0,.137-.41V20.077L20.5,18.232a.907.907,0,0,0,.5-.82A1.063,1.063,0,0,0,20.408,16.615Zm-5.148,6.97a6.323,6.323,0,0,1-9.794,0V20.761l4.6,2.346a.893.893,0,0,0,.41.091.987.987,0,0,0,.433-.091L15.26,20.9Zm-4.783-2.3L3.007,17.5l7.471-3.371L17.948,17.5Zm-7.972,1.89a.958.958,0,0,1,.273.638.862.862,0,0,1-.273.638.958.958,0,0,1-.638.273.862.862,0,0,1-.638-.273.958.958,0,0,1-.273-.638.862.862,0,0,1,.273-.638.958.958,0,0,1,.638-.273A.9.9,0,0,1,2.505,23.175Z" transform="translate(0 -12.225)" fill="#333"/>
</svg>
