<svg xmlns="http://www.w3.org/2000/svg" width="26" height="19.917" viewBox="0 0 26 19.917">
  <path id="XMLID_1705_" d="M25.267,17.949,13.423,12.336a1.027,1.027,0,0,0-.931,0L.649,17.949a1.194,1.194,0,0,0,.028,2.138l1.015.5v4.157a.706.706,0,1,0,1.41,0V21.363l1.692.95v5.048a1.014,1.014,0,0,0,.169.564,9.6,9.6,0,0,0,7.868,4.217,9.47,9.47,0,0,0,7.9-4.217,1.186,1.186,0,0,0,.169-.534V22.462l4.484-2.405A1.192,1.192,0,0,0,26,18.988,1.382,1.382,0,0,0,25.267,17.949Zm-6.373,9.087a7.583,7.583,0,0,1-12.126,0V23.353l5.7,3.059a1.06,1.06,0,0,0,.508.119,1.17,1.17,0,0,0,.536-.119l5.386-2.88Zm-5.922-3L3.722,19.107l9.249-4.395,9.249,4.395ZM3.1,26.5a1.282,1.282,0,0,1,.338.831A1.188,1.188,0,0,1,2.312,28.52a1.042,1.042,0,0,1-.79-.356,1.282,1.282,0,0,1-.338-.831,1.188,1.188,0,0,1,1.128-1.188A1.087,1.087,0,0,1,3.1,26.5Z" transform="translate(0 -12.225)" fill="#fcfcfc"/>
</svg>
