<svg xmlns="http://www.w3.org/2000/svg" width="10" height="10.582" viewBox="0 0 10 10.582">
  <path id="XMLID_1348_" d="M11.767,4.419l-.36,6.721a.47.47,0,0,1-.465.442H5.058a.47.47,0,0,1-.465-.442l-.36-6.721a.466.466,0,0,1,.93-.047L5.5,10.651h5.012l.337-6.279a.46.46,0,1,1,.919.047ZM13,2.86a.466.466,0,0,1-.465.465H3.465a.465.465,0,1,1,0-.93H6.023V1.349A.336.336,0,0,1,6.4,1H9.6a.336.336,0,0,1,.372.349V2.4h2.558A.466.466,0,0,1,13,2.86ZM6.837,2.4H9.163V1.814H6.837Zm.2,7.558h0a.435.435,0,0,0,.407-.442L7.326,4.488a.415.415,0,0,0-.419-.407.4.4,0,0,0-.4.419l.116,5.035A.422.422,0,0,0,7.035,9.953Zm1.919,0a.412.412,0,0,0,.407-.407l.116-5.023A.407.407,0,0,0,8.663,4.5L8.547,9.523a.41.41,0,0,0,.407.43Z" transform="translate(-3 -1)" fill="#271e70" opacity="0.5"/>
</svg>
