<svg xmlns="http://www.w3.org/2000/svg" width="15" height="14.994" viewBox="0 0 15 14.994">
  <path id="XMLID_2170_" d="M14.521.994,14,.473A1.576,1.576,0,0,0,12.859,0h0a1.576,1.576,0,0,0-1.141.473L1.418,10.789a.553.553,0,0,0-.147.228L.049,14.1a.625.625,0,0,0,.147.7.617.617,0,0,0,.456.2A.654.654,0,0,0,.9,14.945l3.1-1.206a.684.684,0,0,0,.228-.147L14.538,3.276A1.618,1.618,0,0,0,14.521.994ZM2.412,11.685l.913.913-1.516.587Zm11.18-9.322-9,9-.945-.945L12.631,1.4a.315.315,0,0,1,.456,0l.522.522A.311.311,0,0,1,13.592,2.363Z" fill="#271e70" opacity="0.53"/>
</svg>
