<svg xmlns="http://www.w3.org/2000/svg" width="21" height="12.303" viewBox="0 0 21 12.303">
  <path id="XMLID_1299_" d="M21.154,19.967v-.16c0-.023-.023-.046-.023-.091,0-.023-.023-.068-.023-.091s-.023-.046-.046-.068-.023-.068-.046-.091v-.023l-.046-.046-.068-.068c-.023-.023-.046-.046-.068-.046-.023-.023-.046-.046-.068-.046-.023-.023-.046-.023-.068-.046s-.046-.023-.068-.046c-.023,0-.068-.023-.091-.023s-.046-.023-.091-.023H.908c-.023,0-.046.023-.091.023-.023,0-.068.023-.091.023s-.046.023-.068.046-.046.023-.068.046-.046.023-.068.046-.046.046-.068.046L.383,19.4l-.046.046v.023a.173.173,0,0,0-.046.091c-.023.023-.023.046-.046.068s-.023.046-.023.091c0,.023-.023.046-.023.091V30.49a.916.916,0,0,0,.913.913H20.287a.916.916,0,0,0,.913-.913l-.046-10.523Zm-3.675.936-6.825,5.067L3.829,20.9ZM1.98,29.577V21.816l8.126,6.026a.913.913,0,0,0,1.1,0l8.126-6.026v7.761Z" transform="translate(-0.2 -19.1)" fill="#333"/>
</svg>
