<svg xmlns="http://www.w3.org/2000/svg" width="20" height="20" viewBox="0 0 20 20">
  <path id="XMLID_1404_" d="M23.048,15.465c-1.6,0-2.214-.848-2.214-6.174,0-4.174-2.071-6.783-5.643-7.174V.77a.956.956,0,0,0-1.9,0v1.3c-3.81.283-6.024,2.935-6.024,7.2,0,5.326-.69,6.174-2.31,6.174A.913.913,0,0,0,4,16.27a.869.869,0,0,0,.952.826h6.19A3.34,3.34,0,0,0,12,19.117a2.69,2.69,0,0,0,1.952.783,2.781,2.781,0,0,0,1.952-.783,3.508,3.508,0,0,0,.929-2.022h6.214a.825.825,0,1,0,0-1.63Zm-8.524,2.478a.744.744,0,0,1-.571.217.724.724,0,0,1-.548-.217,1.4,1.4,0,0,1-.333-.848h1.881A1.424,1.424,0,0,1,14.524,17.943Zm-.381-2.587h-5.9c.881-1.522.881-3.891.881-6.109,0-3.543,1.69-5.413,4.738-5.413h.262c3.048,0,4.738,1.87,4.738,5.413,0,2.217,0,4.587.881,6.109Zm3.381-7.717a.8.8,0,0,1-.786.8H16.69a.806.806,0,0,1-.833-.717,1.631,1.631,0,0,0-1-1.37.753.753,0,0,1-.452-1,.843.843,0,0,1,1.071-.413A3.232,3.232,0,0,1,17.524,7.639Z" transform="translate(-4 0.1)" opacity="0.6"/>
</svg>
