<svg xmlns="http://www.w3.org/2000/svg" width="20" height="19.13" viewBox="0 0 20 19.13">
  <path id="XMLID_2225_" d="M8.7,13.63a.77.77,0,0,0-.761-.761H5.109a.77.77,0,0,0-.761.761v2.826a.77.77,0,0,0,.761.761H7.935a.77.77,0,0,0,.761-.761Zm-2.826.761h1.3v1.3H5.87Zm13.891-7.3L17.826,5.13V2.87A.877.877,0,0,0,16.935,2H3.065a.877.877,0,0,0-.891.87V5.13L.239,7.087A.854.854,0,0,0,0,7.7V9.913a.8.8,0,0,0,.87.783H19.13a.806.806,0,0,0,.87-.8V7.7A.854.854,0,0,0,19.761,7.087ZM16.087,3.739V4.826H3.913V3.739Zm2.174,5.217H1.739V8.043l1.783-1.7H16.478l1.783,1.7Zm.435,3.5v7.8a.872.872,0,0,1-.87.87H14.848a.836.836,0,0,1-.87-.826V15.7H11.957v4.565a.891.891,0,0,1-.891.87H2.2a.891.891,0,0,1-.891-.87v-7.8a.87.87,0,0,1,1.739,0v6.935h7.174V14.739a.783.783,0,0,1,.848-.783h3.761a.748.748,0,0,1,.8.783v4.652h1.3V12.457a.872.872,0,0,1,.87-.87A.891.891,0,0,1,18.7,12.457Z" transform="translate(0 -2)" fill="#333"/>
</svg>
