<svg xmlns="http://www.w3.org/2000/svg" width="12" height="12" viewBox="0 0 12 12">
  <path id="XMLID_1489_" d="M7.943,3.326a2.214,2.214,0,0,1,.522,1.787,1.806,1.806,0,0,1-1.878,1.7H6.522v.313a.522.522,0,0,1-1.043,0V6.7c0-.43.183-.939,1.109-.939a.766.766,0,0,0,.835-.783,1.211,1.211,0,0,0-.274-.965,1.555,1.555,0,0,0-1.2-.417c-1.174,0-1.213.77-1.213.848a.522.522,0,0,1-1.043,0A2.019,2.019,0,0,1,5.948,2.557,2.534,2.534,0,0,1,7.943,3.326ZM5.961,8.087a.612.612,0,0,0-.457.2.664.664,0,0,0-.2.457.612.612,0,0,0,.2.457.664.664,0,0,0,.457.2.612.612,0,0,0,.457-.2.664.664,0,0,0,.2-.457.612.612,0,0,0-.2-.457A.64.64,0,0,0,5.961,8.087ZM12,6A6,6,0,1,1,6,0,6,6,0,0,1,12,6ZM10.957,6A4.957,4.957,0,1,0,6,10.957,4.954,4.954,0,0,0,10.957,6Z" fill="#271e70" opacity="0.7"/>
</svg>
