<svg xmlns="http://www.w3.org/2000/svg" width="15.506" height="15.871" viewBox="0 0 15.506 15.871">
  <path id="XMLID_1102_" d="M8.3,2.2a5.631,5.631,0,0,1,5.591,5.645,5.716,5.716,0,0,1-1.19,3.481L18,16.7a.817.817,0,0,1,0,1.136.778.778,0,0,1-.559.234.789.789,0,0,1-.577-.234l-5.3-5.375a5.493,5.493,0,0,1-3.246,1.046A5.655,5.655,0,0,1,8.3,2.2Zm0,9.883A4.221,4.221,0,1,0,4.15,7.863,4.188,4.188,0,0,0,8.3,12.083ZM5.5,7.935a.622.622,0,0,0,.613.541h.09a.641.641,0,0,0,.541-.7c-.126-.938.92-1.425.974-1.443a.634.634,0,0,0,.307-.83.652.652,0,0,0-.83-.325A2.784,2.784,0,0,0,5.5,7.935ZM6.819,9.306a.758.758,0,0,0-.216.5.655.655,0,0,0,.216.5.758.758,0,0,0,.5.216.682.682,0,0,0,.5-.216.758.758,0,0,0,.216-.5.682.682,0,0,0-.216-.5.758.758,0,0,0-.5-.216A.712.712,0,0,0,6.819,9.306Z" transform="translate(-2.725 -2.2)" fill="#5e5e5e"/>
</svg>
