<svg xmlns="http://www.w3.org/2000/svg" width="21" height="21.003" viewBox="0 0 21 21.003">
  <path id="XMLID_1504_" d="M20.729,14.588,15.3,9.154a.91.91,0,0,0-1.3,0l-1.781,1.781L10.068,8.789l1.781-1.781a.91.91,0,0,0,0-1.3L6.415.274a.91.91,0,0,0-1.3,0L.274,5.137a.883.883,0,0,0,0,1.278l5.433,5.433a.883.883,0,0,0,1.278,0l1.781-1.781,2.146,2.146L9.132,13.994a.91.91,0,0,0,0,1.3l5.433,5.433A.9.9,0,0,0,15.2,21a.829.829,0,0,0,.639-.274l4.863-4.863A.865.865,0,0,0,20.729,14.588ZM6.346,9.908,2.214,5.776,5.776,2.214,9.908,6.346,8.766,7.488,8.082,6.8a.92.92,0,0,0-1.3,1.3l.685.685Zm8.881,8.881-4.132-4.132,1.141-1.141.685.685A.912.912,0,1,0,14.2,12.9l-.685-.685,1.141-1.141L18.788,15.2Z" fill="#333"/>
</svg>
