<svg xmlns="http://www.w3.org/2000/svg" width="21" height="13.696" viewBox="0 0 21 13.696">
  <path id="XMLID_1277_" d="M14.221,25.016a3.2,3.2,0,1,0-3.2-3.2A3.205,3.205,0,0,0,14.221,25.016Zm0-5.022a1.826,1.826,0,1,1-1.826,1.826A1.831,1.831,0,0,1,14.221,19.995Zm-10.637.342a.673.673,0,0,1,.685-.685H8.24a.685.685,0,1,1,0,1.37H4.268A.673.673,0,0,1,3.584,20.337Zm4.657,3.2H4.268a.685.685,0,1,1,0-1.37H8.24a.685.685,0,1,1,0,1.37Zm-1,1.826a.673.673,0,0,1-.685.685H4.268a.685.685,0,0,1,0-1.37H6.574A.668.668,0,0,1,7.236,25.359ZM21,17.507A1.52,1.52,0,0,0,19.493,16H1.507A1.52,1.52,0,0,0,0,17.507V28.189A1.52,1.52,0,0,0,1.507,29.7H19.493A1.52,1.52,0,0,0,21,28.189Zm-19.174.32H19.174v9.518a9.825,9.825,0,0,0-3.333-1.826.777.777,0,0,0-.457,0l-1.164.411-1.164-.411a.789.789,0,0,0-.457.023c-.753.251-2.9.959-3.721,2.328H1.826ZM10.888,27.87a6.169,6.169,0,0,1,1.94-.959l1.164.411a.778.778,0,0,0,.457,0l1.164-.388a6.169,6.169,0,0,1,1.94.959H10.888Z" transform="translate(0 -16)" fill="#333"/>
</svg>
