<svg xmlns="http://www.w3.org/2000/svg" width="21" height="19.63" viewBox="0 0 21 19.63">
  <path id="XMLID_1253_" d="M10.5,15.349A6.175,6.175,0,1,0,4.36,9.163,6.162,6.162,0,0,0,10.5,15.349Zm0-10.523A4.337,4.337,0,1,1,6.186,9.163,4.33,4.33,0,0,1,10.5,4.826Zm2.853,11.116a.917.917,0,0,0-.867.183L10.5,17.814,8.514,16.125a.93.93,0,0,0-.867-.183C6.368,16.353,0,18.545,0,21.717a.916.916,0,0,0,.913.913H20.087A.916.916,0,0,0,21,21.717C21,18.545,14.632,16.353,13.353,15.942ZM2.305,20.8A15.571,15.571,0,0,1,7.738,17.86l2.168,1.849a.9.9,0,0,0,1.187,0l2.168-1.849A16.35,16.35,0,0,1,18.695,20.8Z" transform="translate(0 -3)" fill="#333"/>
</svg>
